<?xml version="1.0" encoding="UTF-8"?>
<svg version="1.1" xmlns="http://www.w3.org/2000/svg" width="225" height="225">
<path d="M0 0 C74.25 0 148.5 0 225 0 C225 74.25 225 148.5 225 225 C150.75 225 76.5 225 0 225 C0 150.75 0 76.5 0 0 Z " fill="#079A42" transform="translate(0,0)"/>
<path d="M0 0 C0.65355469 0.46792969 1.30710938 0.93585937 1.98046875 1.41796875 C15.77857696 12.06971499 26.87600393 31.54262931 29.71435547 48.63330078 C32.41965091 71.04794525 29.25747219 93.21809612 15.94921875 111.875 C14.02462398 114.31064536 12.0416108 116.66215548 10 119 C9.21753906 119.98097656 8.43507812 120.96195313 7.62890625 121.97265625 C-4.1766291 136.13301913 -24.00584808 145.04132833 -42 147 C-66.97167617 148.37052744 -87.89594411 143.80874418 -107 127 C-107.80308594 126.39414063 -108.60617188 125.78828125 -109.43359375 125.1640625 C-123.82636568 113.02769165 -132.94315786 93.4339626 -135 75 C-136.38971091 50.7672566 -131.79862146 29.19530055 -115.54980469 10.31494141 C-85.00311426 -23.73983023 -36.18452259 -27.37611875 0 0 Z " fill="#FBEE01" transform="translate(165,48)"/>
<path d="M0 0 C74.25 0 148.5 0 225 0 C225 74.25 225 148.5 225 225 C150.75 225 76.5 225 0 225 C0 150.75 0 76.5 0 0 Z M42 30 C41.18273438 30.67417969 40.36546875 31.34835938 39.5234375 32.04296875 C18.33360101 50.0510496 6.43799604 76.62333611 4 104 C1.99850427 132.27708401 10.82743626 160.21115685 29 182 C29.77085938 182.93457031 30.54171875 183.86914062 31.3359375 184.83203125 C50.07805433 206.51587192 76.92142601 218.94643752 105.28808594 221.18017578 C135.35441599 222.96268876 162.64234794 212.70031214 185.41796875 193.359375 C199.1488065 180.81258831 208.27623452 166.17667821 215 149 C215.32613281 148.21625 215.65226563 147.4325 215.98828125 146.625 C225.07312948 122.77144977 222.65397317 93.27370121 212.93164062 70.07617188 C208.30919352 59.77499521 202.4561848 50.48412484 195 42 C194.32582031 41.18273438 193.65164062 40.36546875 192.95703125 39.5234375 C176.22067177 19.83001633 149.78763979 6.25148102 124 4 C93.6829077 2.10879642 65.11709735 9.68377964 42 30 Z " fill="#F8EF08" transform="translate(0,0)"/>
<path d="M0 0 C34.32 0 68.64 0 104 0 C104 0.33 104 0.66 104 1 C102.86304687 1.17015625 101.72609375 1.3403125 100.5546875 1.515625 C73.86408064 5.63863514 52.50471875 15.19688984 33 34 C32.01193359 34.89332031 32.01193359 34.89332031 31.00390625 35.8046875 C13.08980032 52.43625928 2.36615457 80.06874056 1 104 C0.67 104 0.34 104 0 104 C0 69.68 0 35.36 0 0 Z " fill="#FFFEFC" transform="translate(0,0)"/>
<path d="M0 0 C34.65 0 69.3 0 105 0 C105 34.65 105 69.3 105 105 C104.67 105 104.34 105 104 105 C103.89042969 104.05640625 103.78085938 103.1128125 103.66796875 102.140625 C99.76972318 70.57434384 86.00313156 43.61361794 60.90625 23.5234375 C43.80800693 11.20762381 21.44482374 0.6771747 0 1 C0 0.67 0 0.34 0 0 Z " fill="#FFFEFC" transform="translate(120,0)"/>
<path d="M0 0 C0.33 0 0.66 0 1 0 C1 34.65 1 69.3 1 105 C-33.65 105 -68.3 105 -104 105 C-104 104.67 -104 104.34 -104 104 C-102.70449219 103.86464844 -101.40898438 103.72929687 -100.07421875 103.58984375 C-75.95580862 100.78681305 -55.29013338 92.02301467 -37 76 C-36.16597656 75.35933594 -35.33195312 74.71867187 -34.47265625 74.05859375 C-29.97330255 70.31268632 -26.57924372 65.60541722 -23 61 C-22.38769531 60.21496094 -21.77539062 59.42992187 -21.14453125 58.62109375 C-8.13608738 41.02843853 -2.46432326 21.43930546 0 0 Z " fill="#FFFEFC" transform="translate(224,120)"/>
<path d="M0 0 C0.33 0 0.66 0 1 0 C1.15855469 0.969375 1.31710938 1.93875 1.48046875 2.9375 C5.81114018 28.30149147 15.19563654 49.13918217 33 68 C33.62519531 68.68964844 34.25039063 69.37929687 34.89453125 70.08984375 C52.69844376 89.01821389 79.58108244 99.16365234 105 101 C105 101.33 105 101.66 105 102 C70.35 102 35.7 102 0 102 C0 68.34 0 34.68 0 0 Z " fill="#FFFEFC" transform="translate(0,123)"/>
<path d="M0 0 C3.33333333 1.66666667 6.66666667 3.33333333 10 5 C9.01 5.33 8.02 5.66 7 6 C7 6.66 7 7.32 7 8 C6.34 8 5.68 8 5 8 C5.5545374 11.32722441 6.24013043 14.1013913 8 17 C8.66 17.33 9.32 17.66 10 18 C10 18.66 10 19.32 10 20 C8.68 20 7.36 20 6 20 C6.061875 20.78375 6.12375 21.5675 6.1875 22.375 C6.0946875 23.674375 6.0946875 23.674375 6 25 C5.01 25.66 4.02 26.32 3 27 C2.62599214 29.32716 2.29235267 31.66117862 2 34 C1.34 34.66 0.68 35.32 0 36 C-2.88982561 35.97628861 -5.57811432 35.8116754 -8.4375 35.5 C-9.21416016 35.44585937 -9.99082031 35.39171875 -10.79101562 35.3359375 C-13.02563257 35.0972704 -14.90781507 34.825758 -17 34 C-18.91015625 30.96875 -18.91015625 30.96875 -20 28 C-20.66 27.67 -21.32 27.34 -22 27 C-22.59355614 24.35139573 -22.74209269 21.70802678 -23 19 C-22.030625 18.71125 -21.06125 18.4225 -20.0625 18.125 C-16.89335797 17.35785318 -16.89335797 17.35785318 -16 15 C-15.236875 14.7525 -14.47375 14.505 -13.6875 14.25 C-10.14458978 12.60213478 -9.0986586 10.21794319 -7 7 C-6.01 7 -5.02 7 -4 7 C-4 6.01 -4 5.02 -4 4 C-3.01 4 -2.02 4 -1 4 C-0.67 2.68 -0.34 1.36 0 0 Z " fill="#089B42" transform="translate(108,82)"/>
<path d="M0 0 C10.31496063 1.49606299 10.31496063 1.49606299 14 6 C14.9075 6.53625 15.815 7.0725 16.75 7.625 C17.4925 8.07875 18.235 8.5325 19 9 C19 9.66 19 10.32 19 11 C20.32 11 21.64 11 23 11 C23.99 12.485 23.99 12.485 25 14 C25.99 13.67 26.98 13.34 28 13 C28 13.66 28 14.32 28 15 C28.66 15 29.32 15 30 15 C30 16.32 30 17.64 30 19 C30.99 19.33 31.98 19.66 33 20 C33 20.99 33 21.98 33 23 C34.65 22.34 36.3 21.68 38 21 C38.66 22.65 39.32 24.3 40 26 C39.67 26 39.34 26 39 26 C38.67 28.97 38.34 31.94 38 35 C34 36 34 36 31.203125 34.41796875 C30.22859375 33.68191406 29.2540625 32.94585937 28.25 32.1875 C27.26515625 31.45917969 26.2803125 30.73085937 25.265625 29.98046875 C24.51796875 29.32691406 23.7703125 28.67335938 23 28 C23 27.34 23 26.68 23 26 C22.34 26 21.68 26 21 26 C20.505 23.525 20.505 23.525 20 21 C19.34 21 18.68 21 18 21 C16.63242962 19.01860265 15.49654964 16.94527788 14.31640625 14.84765625 C13.05288044 12.69032541 13.05288044 12.69032541 10 12 C8.31183067 10.35511706 6.64646685 8.68662458 5 7 C4.2575 6.484375 3.515 5.96875 2.75 5.4375 C0.63569106 3.70074623 0.53430483 2.61275063 0 0 Z " fill="#099B42" transform="translate(39,91)"/>
<path d="M0 0 C0.12375 0.804375 0.2475 1.60875 0.375 2.4375 C0.58125 3.283125 0.7875 4.12875 1 5 C1.66 5.33 2.32 5.66 3 6 C3 6.66 3 7.32 3 8 C3.99 7.34 4.98 6.68 6 6 C5.67 4.68 5.34 3.36 5 2 C6.1446875 2.0309375 6.1446875 2.0309375 7.3125 2.0625 C10.10185786 2.12942841 10.10185786 2.12942841 13 1 C16.74035251 1.77405269 20.33136647 2.92099014 24 4 C24 10.6 24 17.2 24 24 C22.68 23.67 21.36 23.34 20 23 C17.99053778 23.27050453 15.98645776 23.59367909 14 24 C13.77213542 21.98177083 13.54427083 19.96354167 13.31640625 17.9453125 C13.08707039 15.92595684 13.08707039 15.92595684 12 14 C9.88153715 13.31270746 9.88153715 13.31270746 7.4375 12.875 C6.19806641 12.62363281 6.19806641 12.62363281 4.93359375 12.3671875 C4.29550781 12.24601562 3.65742188 12.12484375 3 12 C3 11.34 3 10.68 3 10 C0.69 10.66 -1.62 11.32 -4 12 C-4.33 11.01 -4.66 10.02 -5 9 C-5.66 8.34 -6.32 7.68 -7 7 C-6.01 7 -5.02 7 -4 7 C-4.99 6.67 -5.98 6.34 -7 6 C-7 5.01 -7 4.02 -7 3 C-7.99 3 -8.98 3 -10 3 C-9.67 2.01 -9.34 1.02 -9 0 C-5.93109813 -1.53445094 -3.29905734 -0.54984289 0 0 Z " fill="#0B9B42" transform="translate(166,102)"/>
<path d="M0 0 C5.54665342 1.42221883 10.79839628 4.08145169 15 8 C15.88671875 10.51171875 15.88671875 10.51171875 16 13 C15.01 14.485 15.01 14.485 14 16 C10.875 16.1875 10.875 16.1875 8 16 C8.99 19.3 9.98 22.6 11 26 C9 27 9 27 6.4375 26.25 C2.91604928 22.9994301 3.26528939 19.93346276 3.04296875 15.30078125 C3.02878906 14.54152344 3.01460937 13.78226563 3 13 C2.34 13 1.68 13 1 13 C0.40267181 15.76264289 0 18.16032769 0 21 C-3.77545388 19.90931332 -6.47043472 19.0916909 -9 16 C-8.39671875 15.75894531 -7.7934375 15.51789062 -7.171875 15.26953125 C-4.54316568 13.73296555 -3.69701798 12.3448324 -2.25 9.6875 C-1.82203125 8.92824219 -1.3940625 8.16898438 -0.953125 7.38671875 C0.09933613 4.75125256 0.17914601 2.81159711 0 0 Z " fill="#E60A12" transform="translate(138,47)"/>
<path d="M0 0 C1.65 0 3.3 0 5 0 C5.32613281 0.80824219 5.65226562 1.61648437 5.98828125 2.44921875 C6.42527344 3.51785156 6.86226562 4.58648437 7.3125 5.6875 C7.95638672 7.27111328 7.95638672 7.27111328 8.61328125 8.88671875 C9.9176505 12.00049457 9.9176505 12.00049457 11.66796875 14.70703125 C13 17 13 17 13 20 C10.03 20 7.06 20 4 20 C4 19.01 4 18.02 4 17 C4.66 17 5.32 17 6 17 C5.67 16.34 5.34 15.68 5 15 C2.67843403 14.59270772 0.3431213 14.25561323 -2 14 C-2 14.99 -2 15.98 -2 17 C-1.34 17 -0.68 17 0 17 C0 17.99 0 18.98 0 20 C-2.64 20 -5.28 20 -8 20 C-8 19.01 -8 18.02 -8 17 C-7.34 17 -6.68 17 -6 17 C-5.81824219 16.443125 -5.63648437 15.88625 -5.44921875 15.3125 C-3.75137815 10.15803009 -1.93577765 5.06989385 0 0 Z " fill="#E81B11" transform="translate(108,42)"/>
<path d="M0 0 C2.86724686 0.57344937 3.8614515 0.8614515 6 3 C6 3.99 6 4.98 6 6 C3.36 6 0.72 6 -2 6 C-2.66 7.32 -3.32 8.64 -4 10 C-2.824375 9.484375 -1.64875 8.96875 -0.4375 8.4375 C3.68652745 6.88181705 6.67647306 6.85294183 11 8 C12.42041821 10.84083641 12.31452272 12.85477278 12 16 C9.93127504 18.83491939 8.6427671 19.82469988 5.25 20.75 C4.13625 20.87375 4.13625 20.87375 3 21 C3 21.66 3 22.32 3 23 C0.53199953 21.84826645 -1.04783565 20.95216435 -3 19 C-3 18.01 -3 17.02 -3 16 C-1.01432292 16.32552083 0.97135417 16.65104167 2.95703125 16.9765625 C5.31755824 17.19577848 5.31755824 17.19577848 8 15 C8 14.34 8 13.68 8 13 C7.175 13.165 6.35 13.33 5.5 13.5 C1.535162 14.06640543 -1.99725776 14.20013711 -6 14 C-6.66 13.34 -7.32 12.68 -8 12 C-7.77455919 5.80037783 -7.77455919 5.80037783 -5.125 3.0625 C-3 2 -3 2 0 2 C0 1.34 0 0.68 0 0 Z " fill="#E61012" transform="translate(78,50)"/>
<path d="M0 0 C2.5 0.5 2.5 0.5 4.13671875 2.6484375 C5.69034851 5.89815017 5.87086341 8.04238444 5.8125 11.625 C5.80863281 12.65882813 5.80476563 13.69265625 5.80078125 14.7578125 C5.5 17.5 5.5 17.5 3.5 20.5 C1.125 21 1.125 21 -1.5 20.5 C-3.8125 18.75 -3.8125 18.75 -5.5 15.5 C-6.7521553 5.17667519 -6.7521553 5.17667519 -4.12890625 1.6640625 C-2.5 0.5 -2.5 0.5 0 0 Z " fill="#E61112" transform="translate(116.5,163.5)"/>
<path d="M0 0 C0.33 0.99 0.66 1.98 1 3 C-1.57662281 5.57662281 -2.92083461 5.34115688 -6.5 5.5625 C-10.39598635 5.73519346 -10.39598635 5.73519346 -14 7 C-13.67 7.99 -13.34 8.98 -13 10 C-10.03 9.34 -7.06 8.68 -4 8 C-3.67 9.32 -3.34 10.64 -3 12 C-4.32 12.33 -5.64 12.66 -7 13 C-6.84402344 13.61488281 -6.68804687 14.22976562 -6.52734375 14.86328125 C-6.33269531 15.67152344 -6.13804687 16.47976562 -5.9375 17.3125 C-5.74027344 18.11300781 -5.54304687 18.91351563 -5.33984375 19.73828125 C-5 22 -5 22 -6 25 C-6.99 25 -7.98 25 -9 25 C-10.49821059 21.62902617 -11 19.79557881 -11 16 C-11.66 16 -12.32 16 -13 16 C-12.67 18.97 -12.34 21.94 -12 25 C-13.32 25.33 -14.64 25.66 -16 26 C-15.67 23.69 -15.34 21.38 -15 19 C-15.99 19 -16.98 19 -18 19 C-17.74549519 16.70646253 -17.47088853 14.41514797 -17.1875 12.125 C-17.03667969 10.84882812 -16.88585937 9.57265625 -16.73046875 8.2578125 C-16 5 -16 5 -13 3 C-10.87890625 2.91015625 -10.87890625 2.91015625 -8.5625 3.0625 C-5.36628689 3.1509945 -4.26912679 3.15753764 -1.4375 1.5 C-0.963125 1.005 -0.48875 0.51 0 0 Z " fill="#1EA03E" transform="translate(136,96)"/>
<path d="M0 0 C4.95 0.33 9.9 0.66 15 1 C15 1.99 15 2.98 15 4 C13.68 4.33 12.36 4.66 11 5 C12.32 5.66 13.64 6.32 15 7 C15 7.99 15 8.98 15 10 C13.35 10.33 11.7 10.66 10 11 C11.32 11.33 12.64 11.66 14 12 C14 12.99 14 13.98 14 15 C9.05 15 4.1 15 -1 15 C-1 13.35 -1 11.7 -1 10 C1.31 9.34 3.62 8.68 6 8 C4.02 7.01 2.04 6.02 0 5 C0 3.35 0 1.7 0 0 Z " fill="#D9E30D" transform="translate(202,110)"/>
<path d="M0 0 C3.35829104 1.43714007 5.39970698 3.20977399 7.8125 5.9375 C8.43769531 6.62714844 9.06289062 7.31679687 9.70703125 8.02734375 C10.13371094 8.67832031 10.56039062 9.32929688 11 10 C10.67 10.99 10.34 11.98 10 13 C9.195625 12.175 8.39125 11.35 7.5625 10.5 C5.47736982 7.88361269 5.47736982 7.88361269 4 8 C4.7734375 9.1446875 4.7734375 9.1446875 5.5625 10.3125 C6.036875 11.199375 6.51125 12.08625 7 13 C6.67 13.99 6.34 14.98 6 16 C3.07120629 15.37240135 0.63904371 14.41377341 -2 13 C-0.35 14.98 1.3 16.96 3 19 C-1 19 -1 19 -2.88671875 17.609375 C-3.48097656 16.99578125 -4.07523438 16.3821875 -4.6875 15.75 C-5.28949219 15.14671875 -5.89148438 14.5434375 -6.51171875 13.921875 C-8.07046224 11.90900939 -8.58729064 10.48726172 -9 8 C-7.68 7.34 -6.36 6.68 -5 6 C-3.02 7.32 -1.04 8.64 1 10 C0.46375 9.0925 -0.0725 8.185 -0.625 7.25 C-2 4 -2 4 -1.1875 1.625 C-0.795625 1.08875 -0.40375 0.5525 0 0 Z " fill="#E9EA07" transform="translate(173,177)"/>
<path d="M0 0 C1.32 0.66 2.64 1.32 4 2 C3.41321669 5.52069985 2.64350079 7.71299843 1 11 C4.96 8.525 4.96 8.525 9 6 C9.99 6.66 10.98 7.32 12 8 C10.56438314 11.18706942 8.79733671 13.62169105 6.5 16.25 C5.8915625 16.95640625 5.283125 17.6628125 4.65625 18.390625 C3 20 3 20 1 20 C1.59927826 16.64404172 2.84622436 14.62198774 5 12 C4.071875 12.845625 3.14375 13.69125 2.1875 14.5625 C0.60546875 16.00390625 0.60546875 16.00390625 -1 17 C-1.99 16.67 -2.98 16.34 -4 16 C-3.47731534 13.23723823 -2.89130413 10.6739124 -2 8 C-3.32 9.65 -4.64 11.3 -6 13 C-6.99 12.67 -7.98 12.34 -9 12 C-6 8 -3 4 0 0 Z " fill="#EAEA07" transform="translate(51,178)"/>
<path d="M0 0 C1.67542976 0.28604898 3.34385343 0.61781233 5 1 C5.33 2.32 5.66 3.64 6 5 C9.465 4.505 9.465 4.505 13 4 C13 4.99 13 5.98 13 7 C10.36 7.99 7.72 8.98 5 10 C6.65 10.99 8.3 11.98 10 13 C9.67 13.99 9.34 14.98 9 16 C4.38 14.35 -0.24 12.7 -5 11 C-4.11919671 6.59598353 -3.22169486 3.22169486 0 0 Z " fill="#E6E808" transform="translate(198,141)"/>
<path d="M0 0 C0.66 0 1.32 0 2 0 C2.66 1.98 3.32 3.96 4 6 C6.64 5.34 9.28 4.68 12 4 C11.690625 4.5775 11.38125 5.155 11.0625 5.75 C9.39883734 9.27305033 8.64280941 10.95224093 9.9375 14.75 C10.288125 15.4925 10.63875 16.235 11 17 C9.7625 16.7525 8.525 16.505 7.25 16.25 C5.07896977 15.90427779 5.07896977 15.90427779 3 16 C0.47409152 17.77154652 0.47409152 17.77154652 -1 20 C-1 17.36 -1 14.72 -1 12 C-2.98 11.34 -4.96 10.68 -7 10 C-5 8 -5 8 -2.375 7.875 C-1.59125 7.91625 -0.8075 7.9575 0 8 C0 5.36 0 2.72 0 0 Z " fill="#E7E808" transform="translate(190,54)"/>
<path d="M0 0 C0.8353125 0.7734375 0.8353125 0.7734375 1.6875 1.5625 C3.91276921 3.27060758 3.91276921 3.27060758 6.5625 2.75 C8.38235796 2.19004371 10.19365268 1.60211577 12 1 C11.773125 2.2375 11.54625 3.475 11.3125 4.75 C10.90333102 7.86853111 10.81673542 8.68127899 12.4375 11.5 C12.953125 11.995 13.46875 12.49 14 13 C11.69 13.33 9.38 13.66 7 14 C6.34 15.65 5.68 17.3 5 19 C4.34 18.67 3.68 18.34 3 18 C3 16.02 3 14.04 3 12 C0.36 12 -2.28 12 -5 12 C-5 11.34 -5 10.68 -5 10 C-3.02 9.34 -1.04 8.68 1 8 C0.67 5.36 0.34 2.72 0 0 Z " fill="#EBEA07" transform="translate(60,21)"/>
<path d="M0 0 C0 2.31 0 4.62 0 7 C1.32 7.66 2.64 8.32 4 9 C4 9.66 4 10.32 4 11 C2.02 11.33 0.04 11.66 -2 12 C-2.66 13.98 -3.32 15.96 -4 18 C-7 14.25 -7 14.25 -7 12 C-9.64 12.33 -12.28 12.66 -15 13 C-14.319375 12.505 -13.63875 12.01 -12.9375 11.5 C-10.80204136 9.25732688 -10.80204136 9.25732688 -10.95703125 6.953125 C-11.22259233 4.95610564 -11.60490464 2.97547682 -12 1 C-9.69 1.66 -7.38 2.32 -5 3 C-4.54625 2.505 -4.0925 2.01 -3.625 1.5 C-2 0 -2 0 0 0 Z " fill="#EDEB06" transform="translate(164,21)"/>
<path d="M0 0 C2.35953094 2.35953094 2.49141413 3.77895617 3 7 C5.31 7 7.62 7 10 7 C9.01 7.7734375 9.01 7.7734375 8 8.5625 C5.34362457 11.79995755 5.68657868 13.92552281 6 18 C5.13375 17.4740625 5.13375 17.4740625 4.25 16.9375 C1.5611807 15.81715862 0.68358428 15.9936559 -2 17 C-3.3479743 17.63654342 -4.68596724 18.29605388 -6 19 C-5.7525 17.7625 -5.505 16.525 -5.25 15.25 C-4.90427779 13.07896977 -4.90427779 13.07896977 -5 11 C-6.77154652 8.47409152 -6.77154652 8.47409152 -9 7 C-6.69 7 -4.38 7 -2 7 C-1.855625 6.030625 -1.71125 5.06125 -1.5625 4.0625 C-1 1 -1 1 0 0 Z " fill="#EEEB06" transform="translate(111,7)"/>
<path d="M0 0 C1.02738281 0.0721875 2.05476563 0.144375 3.11328125 0.21875 C11.08786254 0.75957932 19.00182208 1.15250763 27 1 C27 1.99 27 2.98 27 4 C27.66 4 28.32 4 29 4 C29 4.99 29 5.98 29 7 C26.95840905 7.0272616 24.91671037 7.04651345 22.875 7.0625 C21.73804687 7.07410156 20.60109375 7.08570313 19.4296875 7.09765625 C16.18416057 7.00524375 13.18907021 6.57567743 10 6 C9.175 6.020625 8.35 6.04125 7.5 6.0625 C4.39312192 5.98482805 1.89718032 5.07802058 -1 4 C-0.67 2.68 -0.34 1.36 0 0 Z " fill="#159D40" transform="translate(77,126)"/>
<path d="M0 0 C0.33 0 0.66 0 1 0 C1 2.64 1 5.28 1 8 C3.97 8.495 3.97 8.495 7 9 C7 9.66 7 10.32 7 11 C5.02 11.33 3.04 11.66 1 12 C1 14.31 1 16.62 1 19 C0.2575 17.9790625 0.2575 17.9790625 -0.5 16.9375 C-2.74267312 14.80204136 -2.74267312 14.80204136 -5.046875 14.95703125 C-7.04389436 15.22259233 -9.02452318 15.60490464 -11 16 C-10.46375 15.278125 -9.9275 14.55625 -9.375 13.8125 C-7.6555022 11.08478986 -7.6555022 11.08478986 -8.75 8.3125 C-9.36875 7.1678125 -9.36875 7.1678125 -10 6 C-10.33 5.34 -10.66 4.68 -11 4 C-8.23723823 4.52268466 -5.6739124 5.10869587 -3 6 C-2.690625 5.195625 -2.38125 4.39125 -2.0625 3.5625 C-1 1 -1 1 0 0 Z " fill="#F2ED04" transform="translate(33,55)"/>
<path d="M0 0 C2.375 1.3125 2.375 1.3125 4 3 C4 3.99 4 4.98 4 6 C3.443125 5.855625 2.88625 5.71125 2.3125 5.5625 C-0.12167759 4.97040275 -2.52635065 4.40113233 -5 4 C-6.20561184 4.98267859 -6.20561184 4.98267859 -6.09765625 6.84765625 C-6.08605469 7.57855469 -6.07445313 8.30945313 -6.0625 9.0625 C-6.041875 10.361875 -6.02125 11.66125 -6 13 C-4.02 13 -2.04 13 0 13 C0 12.01 0 11.02 0 10 C-0.99 10 -1.98 10 -3 10 C-3 9.34 -3 8.68 -3 8 C-0.69 8 1.62 8 4 8 C3.74438677 10.3431213 3.40729228 12.67843403 3 15 C-0.09173752 16.54586876 -2.59429552 16.29359521 -6 16 C-8.4375 14.5 -8.4375 14.5 -10 12 C-10.81004807 7.92470662 -10.65700312 5.01077404 -8.375 1.5 C-5.29889257 -0.44280469 -3.58110811 -0.52224493 0 0 Z " fill="#EAEA07" transform="translate(102,200)"/>
<path d="M0 0 C-0.2165625 0.93972656 -0.2165625 0.93972656 -0.4375 1.8984375 C-0.623125 2.71570313 -0.80875 3.53296875 -1 4.375 C-1.185625 5.18710938 -1.37125 5.99921875 -1.5625 6.8359375 C-2.06605239 8.95874951 -2.06605239 8.95874951 -2 11 C-0.02 9.02 1.96 7.04 4 5 C4.66 5.33 5.32 5.66 6 6 C4.5645497 7.77249524 3.12656197 9.54293576 1.6875 11.3125 C0.88699219 12.29863281 0.08648437 13.28476563 -0.73828125 14.30078125 C-4.44299065 18.72211838 -4.44299065 18.72211838 -6 20 C-6.99 20 -7.98 20 -9 20 C-7.515 14.555 -7.515 14.555 -6 9 C-6.94875 10.155 -7.8975 11.31 -8.875 12.5 C-10.4921875 14.46875 -10.4921875 14.46875 -12 16 C-12.66 16 -13.32 16 -14 16 C-13.14256944 11.53534401 -10.59899629 8.97555387 -7.5625 5.75 C-7.05912109 5.19570312 -6.55574219 4.64140625 -6.03710938 4.0703125 C-2.26254618 0 -2.26254618 0 0 0 Z " fill="#E71C11" transform="translate(77,149)"/>
<path d="M0 0 C0 0.99 0 1.98 0 3 C-1.98 3.99 -1.98 3.99 -4 5 C-3.62095792 8.29075996 -3.62095792 8.29075996 -2 11 C-0.33382885 11.04063832 1.33388095 11.042721 3 11 C3.66 9.35 4.32 7.7 5 6 C3.35 6.66 1.7 7.32 0 8 C0.33 6.35 0.66 4.7 1 3 C4 2 4 2 6.1875 2.9375 C7.0846875 3.4634375 7.0846875 3.4634375 8 4 C8.33975517 7.65236803 8.20830209 9.61672415 6.4375 12.875 C4 15 4 15 0.5625 15.625 C-3.91145674 14.84009531 -5.36788535 13.66900829 -8 10 C-8.5625 6.9375 -8.5625 6.9375 -8 4 C-5.3248853 0.36948719 -4.64716758 0 0 0 Z " fill="#ECEB06" transform="translate(195,155)"/>
<path d="M0 0 C2.84248268 2.550946 3.91018797 3.9896147 4.25 7.8125 C4.1675 8.534375 4.085 9.25625 4 10 C2.68 10 1.36 10 0 10 C0.020625 9.195625 0.04125 8.39125 0.0625 7.5625 C0.29633621 5.06645115 0.29633621 5.06645115 -1 4 C-3.33297433 3.95907063 -5.66705225 3.95758277 -8 4 C-8.2502157 6.91634129 -8.2502157 6.91634129 -8 10 C-7.01 10.66 -6.02 11.32 -5 12 C-5.33 10.68 -5.66 9.36 -6 8 C-5.01 7.67 -4.02 7.34 -3 7 C-1.5393715 9.64738916 -1 10.89448334 -1 14 C-4.25 14.8125 -4.25 14.8125 -8 15 C-10.5 13 -10.5 13 -12 10 C-12 6.22089384 -11.83289714 3.99306967 -9.375 1.0625 C-5.98831357 -0.45259656 -3.66582737 -0.52368962 0 0 Z " fill="#E8E908" transform="translate(28,144)"/>
<path d="M0 0 C0.66 0.33 1.32 0.66 2 1 C1.39301257 5.12751449 -0.03810791 8.3321148 -2 12 C-1.071875 11.319375 -0.14375 10.63875 0.8125 9.9375 C1.864375 9.298125 2.91625 8.65875 4 8 C4.99 8.33 5.98 8.66 7 9 C3.15080717 13.33034194 -0.72289646 15.6560756 -6 18 C-7.53271273 13.41201223 -6.02911182 11.22055258 -4 7 C-4.763125 7.515625 -5.52625 8.03125 -6.3125 8.5625 C-7.199375 9.036875 -8.08625 9.51125 -9 10 C-9.99 9.67 -10.98 9.34 -12 9 C-8.63378119 5.21300384 -4.58358196 2.1727369 0 0 Z " fill="#EDEB06" transform="translate(34,156)"/>
<path d="M0 0 C1.32 0.33 2.64 0.66 4 1 C4 6.28 4 11.56 4 17 C3.01 17 2.02 17 1 17 C0.67 15.68 0.34 14.36 0 13 C-3.69541586 12.04975021 -6.30458414 12.04975021 -10 13 C-6.73279209 8.61105071 -3.45101522 4.24740335 0 0 Z " fill="#C2DB12" transform="translate(84,197)"/>
<path d="M0 0 C3.29506979 1.29549753 5.96097657 3.34898846 8.75 5.5 C9.54921875 6.1084375 10.3484375 6.716875 11.171875 7.34375 C11.77515625 7.8903125 12.3784375 8.436875 13 9 C13 9.66 13 10.32 13 11 C11.906875 10.979375 10.81375 10.95875 9.6875 10.9375 C6.05615809 10.81455548 6.05615809 10.81455548 3 12 C3.33 13.32 3.66 14.64 4 16 C3.01 16.33 2.02 16.66 1 17 C0.49411853 15.08487728 -0.00448391 13.16783078 -0.5 11.25 C-0.7784375 10.18265625 -1.056875 9.1153125 -1.34375 8.015625 C-2 5 -2 5 -2 1 C-1.34 0.67 -0.68 0.34 0 0 Z " fill="#CDDF0F" transform="translate(157,189)"/>
<path d="M0 0 C-0.45020943 5.85272256 -3.03839227 10.08220119 -6 15 C-6.99 14.67 -7.98 14.34 -9 14 C-8.95875 13.21625 -8.9175 12.4325 -8.875 11.625 C-8.71271266 8.83883881 -8.71271266 8.83883881 -11 7 C-13.57061311 6.35232207 -13.57061311 6.35232207 -16 6 C-16 5.34 -16 4.68 -16 4 C-13.90049414 3.13444052 -11.7952093 2.28288723 -9.6875 1.4375 C-8.51574219 0.96183594 -7.34398437 0.48617187 -6.13671875 -0.00390625 C-3 -1 -3 -1 0 0 Z " fill="#ECEB06" transform="translate(47,172)"/>
<path d="M0 0 C0.66 0 1.32 0 2 0 C2.84080019 2.41429769 3.67281402 4.83103993 4.5 7.25 C4.73847656 7.93191406 4.97695312 8.61382812 5.22265625 9.31640625 C6.39421287 12.76413003 7 15.31702904 7 19 C3.54804233 17.5741914 1.8985744 15.90253666 -0.25 12.875 C-1.03117188 11.78832031 -1.03117188 11.78832031 -1.828125 10.6796875 C-2.21484375 10.12539062 -2.6015625 9.57109375 -3 9 C-2.7834375 9.61488281 -2.566875 10.22976562 -2.34375 10.86328125 C-2.0653125 11.67152344 -1.786875 12.47976562 -1.5 13.3125 C-1.2215625 14.11300781 -0.943125 14.91351563 -0.65625 15.73828125 C0 18 0 18 0 21 C-0.66 21 -1.32 21 -2 21 C-2.84080019 18.58570231 -3.67281402 16.16896007 -4.5 13.75 C-4.85771484 12.72712891 -4.85771484 12.72712891 -5.22265625 11.68359375 C-6.39421287 8.23586997 -7 5.68297096 -7 2 C-2.38348515 3.53883828 -0.58734091 7.11898864 2 11 C1.34 7.37 0.68 3.74 0 0 Z " fill="#E61112" transform="translate(131,161)"/>
<path d="M0 0 C0 0.99 0 1.98 0 3 C-1.32 3 -2.64 3 -4 3 C-4 4.98 -4 6.96 -4 9 C-3.34 9.33 -2.68 9.66 -2 10 C-2 11.32 -2 12.64 -2 14 C-5.13471161 12.46194057 -8.20890631 10.84117275 -11.25 9.125 C-12.14203125 8.63257813 -13.0340625 8.14015625 -13.953125 7.6328125 C-14.62859375 7.09398437 -15.3040625 6.55515625 -16 6 C-16 4.68 -16 3.36 -16 2 C-10.54538831 0.61470179 -5.63281599 -0.2396943 0 0 Z " fill="#EBEA06" transform="translate(215,129)"/>
<path d="M0 0 C1.65 0 3.3 0 5 0 C5.83986084 1.93467942 6.67168027 3.87285129 7.5 5.8125 C7.9640625 6.89144531 8.428125 7.97039062 8.90625 9.08203125 C10 12 10 12 10 15 C9.01 15 8.02 15 7 15 C6.67 13.68 6.34 12.36 6 11 C4.02 11.33 2.04 11.66 0 12 C-0.33 12.99 -0.66 13.98 -1 15 C-1.99 15 -2.98 15 -4 15 C-2.9318153 9.88634986 -1.76892524 4.92772031 0 0 Z " fill="#ECEB06" transform="translate(112,202)"/>
<path d="M0 0 C-0.33 0.99 -0.66 1.98 -1 3 C-2.98 3 -4.96 3 -7 3 C-7.33 3.66 -7.66 4.32 -8 5 C-7.28972656 4.98839844 -6.57945312 4.97679687 -5.84765625 4.96484375 C-4.92855469 4.95582031 -4.00945312 4.94679687 -3.0625 4.9375 C-2.14597656 4.92589844 -1.22945312 4.91429687 -0.28515625 4.90234375 C2 5 2 5 3 6 C3.375 8.875 3.375 8.875 3 12 C0.8125 13.9375 0.8125 13.9375 -2 15 C-4.8125 14.6875 -4.8125 14.6875 -7 14 C-7 12.68 -7 11.36 -7 10 C-6.34 10 -5.68 10 -5 10 C-5 10.66 -5 11.32 -5 12 C-3.35 11.67 -1.7 11.34 0 11 C0 10.01 0 9.02 0 8 C-0.93972656 8.03480469 -0.93972656 8.03480469 -1.8984375 8.0703125 C-3.12433594 8.09738281 -3.12433594 8.09738281 -4.375 8.125 C-5.18710938 8.14820313 -5.99921875 8.17140625 -6.8359375 8.1953125 C-9 8 -9 8 -11 6 C-10.8125 3.5 -10.8125 3.5 -10 1 C-6.1496895 -1.56687367 -4.41430237 -0.83288724 0 0 Z " fill="#E8E908" transform="translate(151,196)"/>
<path d="M0 0 C5.65020618 0.60108576 10.66164461 2.07528683 16 4 C15.67 4.99 15.34 5.98 15 7 C13.35 7 11.7 7 10 7 C8.87483915 8.83284443 8.87483915 8.83284443 8 11 C8.33 11.99 8.66 12.98 9 14 C8.01 14.66 7.02 15.32 6 16 C4.79994469 13.9021477 3.61497017 11.7979751 2.4375 9.6875 C1.92413086 8.79514648 1.92413086 8.79514648 1.40039062 7.88476562 C0.52233738 6.29717441 -0.24586268 4.65006069 -1 3 C-0.67 2.01 -0.34 1.02 0 0 Z " fill="#EDEB05" transform="translate(180,170)"/>
<path d="M0 0 C1.73017508 0.45451184 3.45909877 0.91378857 5.1875 1.375 C6.15042969 1.63023438 7.11335937 1.88546875 8.10546875 2.1484375 C10.82210207 2.94766296 13.39137175 3.9031362 16 5 C16 6.32 16 7.64 16 9 C13.8765984 9.83739781 11.7512272 10.66980283 9.625 11.5 C8.44164062 11.9640625 7.25828125 12.428125 6.0390625 12.90625 C3 14 3 14 1 14 C1.33 12.68 1.66 11.36 2 10 C2.66 10 3.32 10 4 10 C4 8.02 4 6.04 4 4 C2.68 3.67 1.36 3.34 0 3 C0 2.01 0 1.02 0 0 Z " fill="#F0EC05" transform="translate(8,110)"/>
<path d="M0 0 C3.73634075 0.54897989 5.14561476 1.92837808 7.5 4.8125 C9.89328226 7.67929187 12.30214358 10.41005783 15 13 C14.67 13.99 14.34 14.98 14 16 C12.68 15.01 11.36 14.02 10 13 C9.01 13.495 9.01 13.495 8 14 C8 15.98 8 17.96 8 20 C7.01 19.67 6.02 19.34 5 19 C3.95155573 16.35969246 3.09477547 13.84287551 2.3125 11.125 C2.08755859 10.39152344 1.86261719 9.65804687 1.63085938 8.90234375 C0.71551331 5.8474806 0 3.20488959 0 0 Z " fill="#E92F0F" transform="translate(137,157)"/>
<path d="M0 0 C-0.61172638 6.48429963 -1.74664334 12.86526344 -4 19 C-4.66 19.33 -5.32 19.66 -6 20 C-6 18.02 -6 16.04 -6 14 C-7.65 14 -9.3 14 -11 14 C-11.33 14.66 -11.66 15.32 -12 16 C-12.66 16 -13.32 16 -14 16 C-13.14256944 11.53534401 -10.59899629 8.97555387 -7.5625 5.75 C-7.05912109 5.19570312 -6.55574219 4.64140625 -6.03710938 4.0703125 C-2.26254618 0 -2.26254618 0 0 0 Z " fill="#E71411" transform="translate(89,158)"/>
<path d="M0 0 C1.1446875 0.3403125 1.1446875 0.3403125 2.3125 0.6875 C2.6425 2.3375 2.9725 3.9875 3.3125 5.6875 C2.3225 6.1825 2.3225 6.1825 1.3125 6.6875 C0.9825 5.6975 0.6525 4.7075 0.3125 3.6875 C-0.6775 3.3575 -1.6675 3.0275 -2.6875 2.6875 C-1.61348892 5.60267292 -0.90939824 7.46560176 1.3125 9.6875 C1.12565164 13.11305325 0.90044945 15.74678088 -0.9375 18.6875 C-2.6875 19.6875 -2.6875 19.6875 -5.375 19.375 C-6.138125 19.148125 -6.90125 18.92125 -7.6875 18.6875 C-8.0175 16.3775 -8.3475 14.0675 -8.6875 11.6875 C-8.0275 11.3575 -7.3675 11.0275 -6.6875 10.6875 C-6.3575 12.3375 -6.0275 13.9875 -5.6875 15.6875 C-4.6975 15.6875 -3.7075 15.6875 -2.6875 15.6875 C-3.26202746 11.75674356 -3.26202746 11.75674356 -5.6875 8.6875 C-6.02411952 5.5232765 -6.18693411 3.50236618 -4.5 0.75 C-2.6875 -0.3125 -2.6875 -0.3125 0 0 Z " fill="#E71A11" transform="translate(98.6875,162.3125)"/>
<path d="M0 0 C-0.125 1.8125 -0.125 1.8125 -1 4 C-4.0625 5.75 -4.0625 5.75 -7 7 C-7 7.33 -7 7.66 -7 8 C-4.03 8.33 -1.06 8.66 2 9 C2 10.32 2 11.64 2 13 C-3.00890086 12.38487182 -8.00632136 11.7282448 -13 11 C-13.33 9.35 -13.66 7.7 -14 6 C-12.04414675 4.99515796 -10.08523763 3.99626195 -8.125 3 C-6.48917969 2.1646875 -6.48917969 2.1646875 -4.8203125 1.3125 C-2 0 -2 0 0 0 Z " fill="#DEE50B" transform="translate(24,123)"/>
<path d="M0 0 C2.0625 0.25 2.0625 0.25 4 1 C5.20272819 3.40545638 5.10071472 4.94996953 5.0625 7.625 C5.05347656 8.44226563 5.04445313 9.25953125 5.03515625 10.1015625 C5.02355469 10.72804687 5.01195313 11.35453125 5 12 C3.02 12.99 3.02 12.99 1 14 C-1.60208598 11.39791402 -2.24088781 9.45560962 -2.3125 5.875 C-2 2 -2 2 0 0 Z " fill="#FDE301" transform="translate(115,167)"/>
<path d="M0 0 C0 0.66 0 1.32 0 2 C-0.99 2.66 -1.98 3.32 -3 4 C-2.67 7.63 -2.34 11.26 -2 15 C-2.99 15 -3.98 15 -5 15 C-5.66 11.37 -6.32 7.74 -7 4 C-8.65 4 -10.3 4 -12 4 C-12 3.01 -12 2.02 -12 1 C-7.93631321 0.22596442 -4.13574827 -0.0984702 0 0 Z " fill="#DDE50B" transform="translate(132,200)"/>
<path d="M0 0 C0.99 0 1.98 0 3 0 C2.26083824 5.02629997 0.63107238 9.36892762 -3 13 C-8.56818182 12.43181818 -8.56818182 12.43181818 -10 11 C-10.04063832 9.33382885 -10.042721 7.66611905 -10 6 C-9.01 6 -8.02 6 -7 6 C-7 7.32 -7 8.64 -7 10 C-3.88403088 9.33372488 -3.88403088 9.33372488 -2.83203125 6.93359375 C-2.49558594 6.10988281 -2.15914063 5.28617188 -1.8125 4.4375 C-1.46832031 3.61121094 -1.12414062 2.78492188 -0.76953125 1.93359375 C-0.51558594 1.29550781 -0.26164062 0.65742188 0 0 Z " fill="#E8E907" transform="translate(74,194)"/>
<path d="M0 0 C3.45201639 1.47721422 5.64961936 3.43794001 8.25 6.125 C8.95640625 6.84945312 9.6628125 7.57390625 10.390625 8.3203125 C11.18726563 9.15175781 11.18726563 9.15175781 12 10 C13.98 9.34 15.96 8.68 18 8 C18 9.32 18 10.64 18 12 C16 13.75 16 13.75 14 15 C9.95190965 13.41102996 7.62436647 10.69374052 4.75 7.5 C4.29109375 7.00113281 3.8321875 6.50226563 3.359375 5.98828125 C0 2.25897507 0 2.25897507 0 0 Z " fill="#E71611" transform="translate(144,153)"/>
<path d="M0 0 C2.97 0 5.94 0 9 0 C9 3 9 3 8 6 C4.7 6.33 1.4 6.66 -2 7 C-2.33 6.01 -2.66 5.02 -3 4 C-2.34 3.67 -1.68 3.34 -1 3 C-0.67 2.01 -0.34 1.02 0 0 Z " fill="#80C226" transform="translate(124,129)"/>
<path d="M0 0 C0.33 0.66 0.66 1.32 1 2 C3.02463255 2.65213292 3.02463255 2.65213292 5 3 C5.33 2.01 5.66 1.02 6 0 C7.60355101 3.50776784 8.22036864 6.14354879 8 10 C7.01 10 6.02 10 5 10 C4.67 8.68 4.34 7.36 4 6 C0.30458414 5.04975021 -2.30458414 5.04975021 -6 6 C-4 4 -2 2 0 0 Z " fill="#F0EC04" transform="translate(80,204)"/>
<path d="M0 0 C4.571279 0.54855348 8.67435795 1.41744803 13 3 C12.67 3.99 12.34 4.98 12 6 C10.906875 5.979375 9.81375 5.95875 8.6875 5.9375 C5.05615809 5.81455548 5.05615809 5.81455548 2 7 C0 4 0 4 0 0 Z " fill="#C2DB12" transform="translate(183,171)"/>
<path d="M0 0 C2.4375 1 2.4375 1 3.75 3.5625 C4.0903125 4.7690625 4.0903125 4.7690625 4.4375 6 C1.79845629 7.41377341 -0.63370629 8.37240135 -3.5625 9 C-4.2225 7.02 -4.8825 5.04 -5.5625 3 C-3.73879759 0.60039156 -3.08644033 0 0 0 Z " fill="#D9E30D" transform="translate(200.5625,141)"/>
<path d="M0 0 C0.66 0 1.32 0 2 0 C2.24204069 6.44097165 2.2614721 12.87168982 0 19 C-0.66 19.33 -1.32 19.66 -2 20 C-2.22731216 13.06697907 -1.42002108 6.7831364 0 0 Z " fill="#E82910" transform="translate(106,164)"/>
<path d="M0 0 C-0.625 1.9375 -0.625 1.9375 -2 4 C-5.2708979 4.99549067 -7.16733041 5.32868536 -10.375 4.0625 C-10.91125 3.711875 -11.4475 3.36125 -12 3 C-12.33 3.99 -12.66 4.98 -13 6 C-13.33 4.35 -13.66 2.7 -14 1 C-12.41913952 0.63495397 -10.83516093 0.28339494 -9.25 -0.0625 C-8.36828125 -0.25972656 -7.4865625 -0.45695312 -6.578125 -0.66015625 C-4.01320972 -0.99825872 -2.42908361 -0.81158635 0 0 Z " fill="#FBD602" transform="translate(87,63)"/>
<path d="M0 0 C-0.33 0.99 -0.66 1.98 -1 3 C-3.3984375 3.94921875 -3.3984375 3.94921875 -6.375 4.6875 C-7.35210938 4.93886719 -8.32921875 5.19023437 -9.3359375 5.44921875 C-12 6 -12 6 -15 6 C-14.67 4.68 -14.34 3.36 -14 2 C-12.23225581 1.46877637 -10.46065917 0.95035927 -8.6875 0.4375 C-7.70136719 0.14746094 -6.71523438 -0.14257812 -5.69921875 -0.44140625 C-3 -1 -3 -1 0 0 Z " fill="#E0E60A" transform="translate(28,138)"/>
<path d="M0 0 C0 0.99 0 1.98 0 3 C-1.32 3 -2.64 3 -4 3 C-4.33 3.66 -4.66 4.32 -5 5 C-7.0625 6.125 -7.0625 6.125 -9 7 C-9.99 6.01 -10.98 5.02 -12 4 C-11.67 3.67 -11.34 3.34 -11 3 C-11.66 2.34 -12.32 1.68 -13 1 C-8.60563789 0.14256349 -4.47427924 -0.08948558 0 0 Z " fill="#BAD814" transform="translate(215,129)"/>
<path d="M0 0 C1.65 0 3.3 0 5 0 C5.66 2.31 6.32 4.62 7 7 C6.34 7 5.68 7 5 7 C5 7.66 5 8.32 5 9 C3.68 9 2.36 9 1 9 C-1.125 3.375 -1.125 3.375 0 0 Z " fill="#B8D715" transform="translate(112,202)"/>
<path d="M0 0 C-0.33 1.98 -0.66 3.96 -1 6 C-2.98 6.33 -4.96 6.66 -7 7 C-7.33 6.01 -7.66 5.02 -8 4 C-7.67 3.34 -7.34 2.68 -7 2 C-7.66 1.67 -8.32 1.34 -9 1 C-3.375 -1.125 -3.375 -1.125 0 0 Z " fill="#B7D715" transform="translate(47,172)"/>
<path d="M0 0 C5.445 1.485 5.445 1.485 11 3 C11 4.65 11 6.3 11 8 C9.35 8.33 7.7 8.66 6 9 C5.938125 8.38125 5.87625 7.7625 5.8125 7.125 C5.171081 4.72238859 5.171081 4.72238859 2.4375 3.75 C1.633125 3.5025 0.82875 3.255 0 3 C0 2.01 0 1.02 0 0 Z " fill="#B7D716" transform="translate(8,110)"/>
<path d="M0 0 C2.31 0 4.62 0 7 0 C7.99 1.98 8.98 3.96 10 6 C9.34 6 8.68 6 8 6 C8.99 7.485 8.99 7.485 10 9 C9.67 9.99 9.34 10.98 9 12 C6 7.25 6 7.25 6 5 C5.195625 4.731875 4.39125 4.46375 3.5625 4.1875 C2.716875 3.795625 1.87125 3.40375 1 3 C0.67 2.01 0.34 1.02 0 0 Z " fill="#99CC1D" transform="translate(45,103)"/>
<path d="M0 0 C4.95 0.33 9.9 0.66 15 1 C15 1.66 15 2.32 15 3 C11.37 3 7.74 3 4 3 C4 3.66 4 4.32 4 5 C2.68 5 1.36 5 0 5 C0 3.35 0 1.7 0 0 Z " fill="#FDF200" transform="translate(202,110)"/>
<path d="M0 0 C0.66 0.33 1.32 0.66 2 1 C1.67 2.32 1.34 3.64 1 5 C1.99 5 2.98 5 4 5 C4 5.99 4 6.98 4 8 C3.34 8 2.68 8 2 8 C2.33 9.32 2.66 10.64 3 12 C2.01 12.33 1.02 12.66 0 13 C-1.18306728 10.63386544 -1.13354608 9.13219264 -1.125 6.5 C-1.12757813 5.7059375 -1.13015625 4.911875 -1.1328125 4.09375 C-1 2 -1 2 0 0 Z " fill="#E9EA08" transform="translate(158,193)"/>
<path d="M0 0 C1.32 0.33 2.64 0.66 4 1 C4 1.66 4 2.32 4 3 C4.66 3 5.32 3 6 3 C6.66 5.64 7.32 8.28 8 11 C5.12160009 9.7096828 2.90945214 8.54593619 1 6 C0.3125 2.8125 0.3125 2.8125 0 0 Z " fill="#DCE40C" transform="translate(53,109)"/>
<path d="M0 0 C2.4375 0.75 2.4375 0.75 5 2 C5.8125 4.125 5.8125 4.125 6 6 C3.39417629 6.93065133 2.35801776 7.14917407 -0.25 6.0625 C-0.8275 5.711875 -1.405 5.36125 -2 5 C-1.34 3.35 -0.68 1.7 0 0 Z " fill="#FBDA02" transform="translate(143,53)"/>
<path d="M0 0 C3.41366172 0.34136617 4.7640201 0.86071318 7.125 3.3125 C7.125 4.3025 7.125 5.2925 7.125 6.3125 C3.85545798 5.74878586 2.29924117 4.81287734 0.125 2.3125 C-2.36861571 3.51631448 -4.55643083 4.76678722 -6.875 6.3125 C-4.13912214 0.44990458 -4.13912214 0.44990458 0 0 Z " fill="#D3E10F" transform="translate(98.875,199.6875)"/>
<path d="M0 0 C0.66 0 1.32 0 2 0 C2 0.99 2 1.98 2 3 C2.33 3.33 2.66 3.66 3 4 C3 5.32 3 6.64 3 8 C2.01 8.495 2.01 8.495 1 9 C1.33 9.99 1.66 10.98 2 12 C2 12.99 2 13.98 2 15 C1.01 14.67 0.02 14.34 -1 14 C-2.40070201 10.74391784 -1.81848927 8.12971675 -1.0625 4.75 C-0.86785156 3.85796875 -0.67320312 2.9659375 -0.47265625 2.046875 C-0.31667969 1.37140625 -0.16070312 0.6959375 0 0 Z " fill="#45AC35" transform="translate(146,92)"/>
<path d="M0 0 C1.32 0 2.64 0 4 0 C3.34 2.31 2.68 4.62 2 7 C0.68 7 -0.64 7 -2 7 C-2.33 6.01 -2.66 5.02 -3 4 C-1.8125 1.8125 -1.8125 1.8125 0 0 Z " fill="#F06E0B" transform="translate(83,162)"/>
<path d="M0 0 C0.99 0 1.98 0 3 0 C3 0.66 3 1.32 3 2 C3.66 2.33 4.32 2.66 5 3 C1.37 5.31 -2.26 7.62 -6 10 C-6.33 9.01 -6.66 8.02 -7 7 C-5.35 6.34 -3.7 5.68 -2 5 C-2 4.34 -2 3.68 -2 3 C-1.34 2.67 -0.68 2.34 0 2 C0 1.34 0 0.68 0 0 Z " fill="#39A739" transform="translate(142,126)"/>
<path d="M0 0 C-0.33 0.99 -0.66 1.98 -1 3 C-3.01822917 2.90234375 -5.03645833 2.8046875 -7.0546875 2.70703125 C-8.01761719 2.85205078 -8.01761719 2.85205078 -9 3 C-9.66 3.99 -10.32 4.98 -11 6 C-10.6875 3.625 -10.6875 3.625 -10 1 C-6.1496895 -1.56687367 -4.41430237 -0.83288724 0 0 Z " fill="#D5E10E" transform="translate(151,196)"/>
<path d="M0 0 C0 0.66 0 1.32 0 2 C-1.31057393 2.36122881 -2.62353624 2.71380311 -3.9375 3.0625 C-4.66839844 3.25972656 -5.39929688 3.45695313 -6.15234375 3.66015625 C-6.76207031 3.77230469 -7.37179688 3.88445312 -8 4 C-8.33 3.67 -8.66 3.34 -9 3 C-10.66617115 2.95936168 -12.33388095 2.957279 -14 3 C-14 2.34 -14 1.68 -14 1 C-12.41693353 0.83081732 -10.83353281 0.66476064 -9.25 0.5 C-8.36828125 0.4071875 -7.4865625 0.314375 -6.578125 0.21875 C-4 0 -4 0 0 0 Z " fill="#39A739" transform="translate(121,130)"/>
<path d="M0 0 C0 0.99 0 1.98 0 3 C-1.98 3.66 -3.96 4.32 -6 5 C-6.33 6.65 -6.66 8.3 -7 10 C-7.33 10 -7.66 10 -8 10 C-8.32899743 6.38102827 -8.44576634 4.60496861 -6.25 1.625 C-4 0 -4 0 0 0 Z " fill="#DEE50B" transform="translate(195,155)"/>
<path d="M0 0 C-0.875 7.625 -0.875 7.625 -2 11 C-2.66 11 -3.32 11 -4 11 C-3.125 6.25 -3.125 6.25 -2 4 C-2.99 3.67 -3.98 3.34 -5 3 C-2.25 0 -2.25 0 0 0 Z " fill="#E50613" transform="translate(89,158)"/>
<path d="M0 0 C-0.0625 1.8125 -0.0625 1.8125 -1 4 C-4.5625 5.75 -4.5625 5.75 -8 7 C-6.53112033 2.34854772 -6.53112033 2.34854772 -4 0.6875 C-2 0 -2 0 0 0 Z " fill="#EDEB06" transform="translate(24,123)"/>
<path d="M0 0 C1.4606285 2.64738916 2 3.89448334 2 7 C1.34 7 0.68 7 0 7 C0 9.97 0 12.94 0 16 C-0.33 16 -0.66 16 -1 16 C-1.33 12.04 -1.66 8.08 -2 4 C-1.34 4 -0.68 4 0 4 C0 2.68 0 1.36 0 0 Z " fill="#F9C404" transform="translate(123,163)"/>
<path d="M0 0 C0.66 0 1.32 0 2 0 C3.4606285 2.64738916 4 3.89448334 4 7 C2.35 7 0.7 7 -1 7 C-1.04254356 5.00045254 -1.04080783 2.99958364 -1 1 C-0.67 0.67 -0.34 0.34 0 0 Z " fill="#DBE40C" transform="translate(23,151)"/>
<path d="M0 0 C0.598125 0.763125 1.19625 1.52625 1.8125 2.3125 C3.46959332 4.3483575 5.10297674 6.1978279 7 8 C5.1875 8.6875 5.1875 8.6875 3 9 C1.25 7.9375 1.25 7.9375 0 6 C-0.1875 2.8125 -0.1875 2.8125 0 0 Z " fill="#F4EE03" transform="translate(17,150)"/>
<path d="M0 0 C0.33 0.99 0.66 1.98 1 3 C-1.39763185 5.39763185 -2.33273498 5.34280586 -5.625 5.625 C-6.44226563 5.69976562 -7.25953125 5.77453125 -8.1015625 5.8515625 C-8.72804688 5.90054688 -9.35453125 5.94953125 -10 6 C-10 5.01 -10 4.02 -10 3 C-9.0925 3.061875 -8.185 3.12375 -7.25 3.1875 C-3.71017358 2.98327924 -2.55068845 2.35448165 0 0 Z " fill="#2BA23C" transform="translate(136,96)"/>
<path d="M0 0 C0.66 0 1.32 0 2 0 C2 0.66 2 1.32 2 2 C3.32 2 4.64 2 6 2 C5.67 2.99 5.34 3.98 5 5 C3.35 4.67 1.7 4.34 0 4 C0 2.68 0 1.36 0 0 Z " fill="#DCE50C" transform="translate(144,206)"/>
<path d="M0 0 C0.66 0 1.32 0 2 0 C2.99 3.3 3.98 6.6 5 10 C4.01 9.67 3.02 9.34 2 9 C1.26953125 6.93359375 1.26953125 6.93359375 0.8125 4.4375 C0.65394531 3.61121094 0.49539062 2.78492188 0.33203125 1.93359375 C0.16767578 0.97646484 0.16767578 0.97646484 0 0 Z " fill="#E82611" transform="translate(131,161)"/>
<path d="M0 0 C5.75 0.75 5.75 0.75 8 3 C5.03 3 2.06 3 -1 3 C-0.67 2.01 -0.34 1.02 0 0 Z " fill="#28A23C" transform="translate(144,198)"/>
<path d="M0 0 C2.0625 0.4375 2.0625 0.4375 4 1 C4.33 2.65 4.66 4.3 5 6 C4.01 6.495 4.01 6.495 3 7 C2.67 5.35 2.34 3.7 2 2 C1.01 1.67 0.02 1.34 -1 1 C-0.67 0.67 -0.34 0.34 0 0 Z " fill="#E60B12" transform="translate(97,162)"/>
<path d="M0 0 C2.97 0 5.94 0 9 0 C8.67 0.66 8.34 1.32 8 2 C5.93359375 2.4140625 5.93359375 2.4140625 3.4375 2.625 C2.61121094 2.69976562 1.78492187 2.77453125 0.93359375 2.8515625 C-0.02353516 2.92503906 -0.02353516 2.92503906 -1 3 C-0.67 2.01 -0.34 1.02 0 0 Z " fill="#3DA838" transform="translate(124,129)"/>
<path d="M0 0 C0 0.99 0 1.98 0 3 C-1.65 3.66 -3.3 4.32 -5 5 C-5.33 3.68 -5.66 2.36 -6 1 C-3 0 -3 0 0 0 Z " fill="#AAD219" transform="translate(140,128)"/>
<path d="M0 0 C1.32 0.33 2.64 0.66 4 1 C4 2.32 4 3.64 4 5 C2.68 5 1.36 5 0 5 C0 3.35 0 1.7 0 0 Z " fill="#F3EE03" transform="translate(202,110)"/>
<path d="M0 0 C2.64 0 5.28 0 8 0 C8.33 0.99 8.66 1.98 9 3 C6.03 2.67 3.06 2.34 0 2 C0 1.34 0 0.68 0 0 Z " fill="#0F9A41" transform="translate(148,110)"/>
<path d="M0 0 C0.99 0 1.98 0 3 0 C3 1.98 3 3.96 3 6 C2.01 6 1.02 6 0 6 C0 4.02 0 2.04 0 0 Z " fill="#E7E907" transform="translate(127,209)"/>
<path d="M0 0 C0.33 0.99 0.66 1.98 1 3 C2.65 3 4.3 3 6 3 C5.67 3.66 5.34 4.32 5 5 C3.02 5 1.04 5 -1 5 C-0.67 3.35 -0.34 1.7 0 0 Z " fill="#FAF101" transform="translate(142,198)"/>
<path d="M0 0 C4.875 4.75 4.875 4.75 6 7 C4.68 7.33 3.36 7.66 2 8 C1.34 5.36 0.68 2.72 0 0 Z " fill="#F8BA05" transform="translate(127,169)"/>
<path d="M0 0 C0.99 0 1.98 0 3 0 C2.67 1.65 2.34 3.3 2 5 C1.01 5 0.02 5 -1 5 C-0.67 3.35 -0.34 1.7 0 0 Z " fill="#0D9A42" transform="translate(198,145)"/>
<path d="M0 0 C1.32 0.33 2.64 0.66 4 1 C4 1.99 4 2.98 4 4 C1.69 4 -0.62 4 -3 4 C-2.01 3.67 -1.02 3.34 0 3 C0 2.01 0 1.02 0 0 Z " fill="#B0D417" transform="translate(108,133)"/>
<path d="M0 0 C1.4540625 0.0309375 1.4540625 0.0309375 2.9375 0.0625 C2.298125 0.330625 1.65875 0.59875 1 0.875 C-1.39381686 1.94917752 -1.39381686 1.94917752 -2.0625 5.0625 C-3.0525 5.0625 -4.0425 5.0625 -5.0625 5.0625 C-3.9375 0.08035714 -3.9375 0.08035714 0 0 Z " fill="#FBD203" transform="translate(79.0625,54.9375)"/>
<path d="M0 0 C1.65 0 3.3 0 5 0 C5 0.99 5 1.98 5 3 C3.02 3 1.04 3 -1 3 C-0.67 2.01 -0.34 1.02 0 0 Z " fill="#66B72F" transform="translate(99,127)"/>
</svg>
