<?xml version="1.0" encoding="UTF-8"?>
<svg version="1.1" xmlns="http://www.w3.org/2000/svg" width="500" height="500">
<path d="M0 0 C3.41543498 0.02148072 6.82876761 0.00002429 10.24414062 -0.02539062 C64.11651346 -0.09344024 117.69454413 19.49410243 159.41601562 53.52148438 C160.38796875 54.28976563 161.35992187 55.05804688 162.36132812 55.84960938 C178.00990794 68.57658734 192.61027145 83.14768844 204.41601562 99.52148438 C205.2437907 100.6216876 206.07324274 101.72063093 206.90429688 102.81835938 C230.21217087 134.00418612 245.0201663 171.25574753 251.41601562 209.52148438 C251.68986084 210.94303833 251.68986084 210.94303833 251.96923828 212.39331055 C253.91082698 223.62184822 253.78818463 234.91107309 253.78662109 246.27563477 C253.79095937 249.78842975 253.82727662 253.29992902 253.86523438 256.8125 C254.16826113 318.05291782 229.04262347 373.85189271 189.41601562 419.52148438 C188.22105469 420.90400391 188.22105469 420.90400391 187.00195312 422.31445312 C183.08371061 426.7645533 179.09092438 430.87735677 174.55273438 434.69335938 C172.07790945 436.81075986 169.72728407 439.04147443 167.35351562 441.27148438 C133.39951919 472.10488032 90.01090851 490.08352332 45.41601562 498.52148438 C44.43665039 498.71871094 43.45728516 498.9159375 42.44824219 499.11914062 C30.97739241 501.11841728 19.36120452 500.89362235 7.75244141 500.89208984 C4.08382693 500.89643368 0.41644726 500.93276265 -3.25195312 500.97070312 C-18.75637883 501.04491759 -33.40732681 499.68526078 -48.58398438 496.52148438 C-50.47117188 496.13621582 -50.47117188 496.13621582 -52.39648438 495.74316406 C-55.24839341 495.12143358 -58.07153205 494.44256155 -60.89648438 493.70898438 C-61.88245605 493.45600586 -62.86842773 493.20302734 -63.88427734 492.94238281 C-94.41793115 484.8664705 -122.36155428 470.34974926 -147.58398438 451.52148438 C-148.53942139 450.81378906 -148.53942139 450.81378906 -149.51416016 450.09179688 C-167.50754503 436.60258057 -184.49730604 419.82927271 -197.58398438 401.52148438 C-198.40863016 400.4234917 -199.235501 399.32716704 -200.06445312 398.23242188 C-223.38087851 367.05652726 -238.19358867 329.78439256 -244.58398438 291.52148438 C-244.85782959 290.0901416 -244.85782959 290.0901416 -245.13720703 288.62988281 C-247.04209128 277.56018145 -246.9561658 266.4530028 -246.95458984 255.24951172 C-246.95892293 251.82011704 -246.99522733 248.39205542 -247.03320312 244.96289062 C-247.31109683 190.43799355 -227.50805471 137.02444094 -193.58398438 94.52148438 C-193.13007324 93.95042969 -192.67616211 93.379375 -192.20849609 92.79101562 C-179.72281886 77.25972013 -165.38770803 62.39834424 -149.21533203 50.70410156 C-147.5545952 49.5001792 -145.91863672 48.26731288 -144.28320312 47.02929688 C-119.6503798 28.62538106 -90.68504809 15.0123844 -60.95898438 7.33398438 C-60.09732666 7.10799561 -59.23566895 6.88200684 -58.34790039 6.64916992 C-39.03431338 1.92271794 -19.85631337 -0.14775734 0 0 Z " fill="#FCEF00" transform="translate(246.583984375,-0.521484375)"/>
<path d="M0 0 C3.41543498 0.02148072 6.82876761 0.00002429 10.24414062 -0.02539062 C64.11651346 -0.09344024 117.69454413 19.49410243 159.41601562 53.52148438 C160.38796875 54.28976563 161.35992187 55.05804688 162.36132812 55.84960938 C178.00990794 68.57658734 192.61027145 83.14768844 204.41601562 99.52148438 C205.2437907 100.6216876 206.07324274 101.72063093 206.90429688 102.81835938 C230.21217087 134.00418612 245.0201663 171.25574753 251.41601562 209.52148438 C251.68986084 210.94303833 251.68986084 210.94303833 251.96923828 212.39331055 C253.91082698 223.62184822 253.78818463 234.91107309 253.78662109 246.27563477 C253.79095937 249.78842975 253.82727662 253.29992902 253.86523438 256.8125 C254.16826113 318.05291782 229.04262347 373.85189271 189.41601562 419.52148438 C188.22105469 420.90400391 188.22105469 420.90400391 187.00195312 422.31445312 C183.08371061 426.7645533 179.09092438 430.87735677 174.55273438 434.69335938 C172.07790945 436.81075986 169.72728407 439.04147443 167.35351562 441.27148438 C133.39951919 472.10488032 90.01090851 490.08352332 45.41601562 498.52148438 C44.43665039 498.71871094 43.45728516 498.9159375 42.44824219 499.11914062 C30.97739241 501.11841728 19.36120452 500.89362235 7.75244141 500.89208984 C4.08382693 500.89643368 0.41644726 500.93276265 -3.25195312 500.97070312 C-18.75637883 501.04491759 -33.40732681 499.68526078 -48.58398438 496.52148438 C-50.47117188 496.13621582 -50.47117188 496.13621582 -52.39648438 495.74316406 C-55.24839341 495.12143358 -58.07153205 494.44256155 -60.89648438 493.70898438 C-61.88245605 493.45600586 -62.86842773 493.20302734 -63.88427734 492.94238281 C-94.41793115 484.8664705 -122.36155428 470.34974926 -147.58398438 451.52148438 C-148.53942139 450.81378906 -148.53942139 450.81378906 -149.51416016 450.09179688 C-167.50754503 436.60258057 -184.49730604 419.82927271 -197.58398438 401.52148438 C-198.40863016 400.4234917 -199.235501 399.32716704 -200.06445312 398.23242188 C-223.38087851 367.05652726 -238.19358867 329.78439256 -244.58398438 291.52148438 C-244.85782959 290.0901416 -244.85782959 290.0901416 -245.13720703 288.62988281 C-247.04209128 277.56018145 -246.9561658 266.4530028 -246.95458984 255.24951172 C-246.95892293 251.82011704 -246.99522733 248.39205542 -247.03320312 244.96289062 C-247.31109683 190.43799355 -227.50805471 137.02444094 -193.58398438 94.52148438 C-193.13007324 93.95042969 -192.67616211 93.379375 -192.20849609 92.79101562 C-179.72281886 77.25972013 -165.38770803 62.39834424 -149.21533203 50.70410156 C-147.5545952 49.5001792 -145.91863672 48.26731288 -144.28320312 47.02929688 C-119.6503798 28.62538106 -90.68504809 15.0123844 -60.95898438 7.33398438 C-60.09732666 7.10799561 -59.23566895 6.88200684 -58.34790039 6.64916992 C-39.03431338 1.92271794 -19.85631337 -0.14775734 0 0 Z M-47.58398438 73.52148438 C-48.36177246 73.75319336 -49.13956055 73.98490234 -49.94091797 74.22363281 C-69.4513727 80.0756395 -87.09460753 88.55218075 -103.58398438 100.52148438 C-104.13119141 100.90788086 -104.67839844 101.29427734 -105.2421875 101.69238281 C-122.4205441 113.90560059 -138.19875647 129.76824765 -149.58398438 147.52148438 C-149.96377441 148.09962891 -150.34356445 148.67777344 -150.73486328 149.2734375 C-175.47075431 187.2123073 -186.42231655 233.65544807 -178.58398438 278.52148438 C-178.4333252 279.41367676 -178.28266602 280.30586914 -178.12744141 281.22509766 C-174.50179161 302.09086893 -167.60023515 320.91137965 -157.58398438 339.52148438 C-157.26993652 340.12009277 -156.95588867 340.71870117 -156.63232422 341.33544922 C-149.51835749 354.85235442 -140.08450438 366.47506577 -129.58398438 377.52148438 C-129.05321289 378.08480469 -128.52244141 378.648125 -127.97558594 379.22851562 C-109.42510444 398.7987071 -85.45634055 415.86134937 -59.33007812 423.63476562 C-56.58398438 424.52148438 -56.58398438 424.52148438 -53.60742188 425.93164062 C-47.94254287 428.40988066 -41.79567202 429.39183933 -35.77148438 430.64648438 C-34.55138672 430.91074219 -33.33128906 431.175 -32.07421875 431.44726562 C-0.09971816 438.21671927 40.44840234 436.60215141 70.47851562 422.33398438 C73.73706575 420.78949578 76.99442017 419.25898983 80.29492188 417.80664062 C103.56617952 407.42943183 126.29318683 391.42204711 142.41601562 371.52148438 C142.81788086 371.03196289 143.21974609 370.54244141 143.63378906 370.03808594 C158.42020209 351.96820354 169.69527086 332.58409744 177.41601562 310.52148438 C177.92713858 309.2178652 178.43887291 307.9144856 178.95117188 306.61132812 C180.54970606 302.36894579 181.54996137 298.07716378 182.47851562 293.64648438 C182.64843018 292.85419434 182.81834473 292.0619043 182.9934082 291.24560547 C183.32553134 289.69102047 183.65499612 288.13586449 183.98144531 286.58007812 C184.33574388 284.90173794 184.70563926 283.22669638 185.08007812 281.55273438 C191.65792926 251.31425451 188.21706532 215.08821609 176.41601562 186.52148438 C175.9184375 185.30589844 175.42085938 184.0903125 174.90820312 182.83789062 C165.94408461 161.810224 154.95850885 142.41587914 138.85644531 125.99267578 C137.3328661 124.43655911 135.83187945 122.86032844 134.33007812 121.28320312 C123.01584267 109.54071211 110.42464122 99.84612368 96.41601562 91.52148438 C95.84334961 91.18020508 95.27068359 90.83892578 94.68066406 90.48730469 C83.8122578 84.11743114 72.2678106 79.71086417 60.41601562 75.52148438 C59.26359375 75.10898438 58.11117187 74.69648437 56.92382812 74.27148438 C23.69059348 63.22251286 -14.24762091 63.1990976 -47.58398438 73.52148438 Z " fill="#049A42" transform="translate(246.583984375,-0.521484375)"/>
<path d="M0 0 C3.41543498 0.02148072 6.82876761 0.00002429 10.24414062 -0.02539062 C64.11651346 -0.09344024 117.69454413 19.49410243 159.41601562 53.52148438 C160.38796875 54.28976563 161.35992187 55.05804688 162.36132812 55.84960938 C178.00990794 68.57658734 192.61027145 83.14768844 204.41601562 99.52148438 C205.2437907 100.6216876 206.07324274 101.72063093 206.90429688 102.81835938 C230.21217087 134.00418612 245.0201663 171.25574753 251.41601562 209.52148438 C251.68986084 210.94303833 251.68986084 210.94303833 251.96923828 212.39331055 C253.91082698 223.62184822 253.78818463 234.91107309 253.78662109 246.27563477 C253.79095937 249.78842975 253.82727662 253.29992902 253.86523438 256.8125 C254.16826113 318.05291782 229.04262347 373.85189271 189.41601562 419.52148438 C188.22105469 420.90400391 188.22105469 420.90400391 187.00195312 422.31445312 C183.08371061 426.7645533 179.09092438 430.87735677 174.55273438 434.69335938 C172.07790945 436.81075986 169.72728407 439.04147443 167.35351562 441.27148438 C133.39951919 472.10488032 90.01090851 490.08352332 45.41601562 498.52148438 C44.43665039 498.71871094 43.45728516 498.9159375 42.44824219 499.11914062 C30.97739241 501.11841728 19.36120452 500.89362235 7.75244141 500.89208984 C4.08382693 500.89643368 0.41644726 500.93276265 -3.25195312 500.97070312 C-18.75637883 501.04491759 -33.40732681 499.68526078 -48.58398438 496.52148438 C-50.47117188 496.13621582 -50.47117188 496.13621582 -52.39648438 495.74316406 C-55.24839341 495.12143358 -58.07153205 494.44256155 -60.89648438 493.70898438 C-61.88245605 493.45600586 -62.86842773 493.20302734 -63.88427734 492.94238281 C-94.41793115 484.8664705 -122.36155428 470.34974926 -147.58398438 451.52148438 C-148.53942139 450.81378906 -148.53942139 450.81378906 -149.51416016 450.09179688 C-167.50754503 436.60258057 -184.49730604 419.82927271 -197.58398438 401.52148438 C-198.40863016 400.4234917 -199.235501 399.32716704 -200.06445312 398.23242188 C-223.38087851 367.05652726 -238.19358867 329.78439256 -244.58398438 291.52148438 C-244.85782959 290.0901416 -244.85782959 290.0901416 -245.13720703 288.62988281 C-247.04209128 277.56018145 -246.9561658 266.4530028 -246.95458984 255.24951172 C-246.95892293 251.82011704 -246.99522733 248.39205542 -247.03320312 244.96289062 C-247.31109683 190.43799355 -227.50805471 137.02444094 -193.58398438 94.52148438 C-193.13007324 93.95042969 -192.67616211 93.379375 -192.20849609 92.79101562 C-179.72281886 77.25972013 -165.38770803 62.39834424 -149.21533203 50.70410156 C-147.5545952 49.5001792 -145.91863672 48.26731288 -144.28320312 47.02929688 C-119.6503798 28.62538106 -90.68504809 15.0123844 -60.95898438 7.33398438 C-60.09732666 7.10799561 -59.23566895 6.88200684 -58.34790039 6.64916992 C-39.03431338 1.92271794 -19.85631337 -0.14775734 0 0 Z M-29.58398438 11.52148438 C-30.32793457 11.61800293 -31.07188477 11.71452148 -31.83837891 11.81396484 C-74.31938331 17.50864494 -114.45909002 35.50555295 -147.58398438 62.52148438 C-148.19435547 63.01616211 -148.80472656 63.51083984 -149.43359375 64.02050781 C-162.73220226 74.87547888 -175.13782522 86.87343736 -185.58398438 100.52148438 C-186.31875 101.4625 -187.05351562 102.40351562 -187.81054688 103.37304688 C-226.50785836 153.77263812 -244.2509516 218.18827505 -236.33398438 281.39648438 C-235.17849056 289.8253991 -233.57879619 298.01557495 -231.23779297 306.20214844 C-230.44428992 309.01703975 -229.69706046 311.8430796 -228.94726562 314.66992188 C-228.34821218 316.89160184 -227.74794859 319.11295585 -227.14648438 321.33398438 C-226.73221191 322.89137329 -226.73221191 322.89137329 -226.30957031 324.48022461 C-224.36051658 331.52615503 -221.75877236 337.9460225 -218.58398438 344.52148438 C-217.72322576 346.38021926 -216.86386357 348.23960142 -216.00585938 350.09960938 C-205.71450629 372.05640708 -193.58312475 391.29569079 -177.58398438 409.52148438 C-176.47603516 410.79765625 -176.47603516 410.79765625 -175.34570312 412.09960938 C-165.53858956 423.21553334 -155.22125269 433.3778034 -143.31933594 442.23046875 C-142.18876774 443.0715555 -141.06284142 443.91892951 -139.94238281 444.7734375 C-113.22023192 465.1500867 -80.60487929 480.19848613 -47.58398438 486.52148438 C-46.70049316 486.69518555 -45.81700195 486.86888672 -44.90673828 487.04785156 C-42.00962325 487.61355165 -39.11027685 488.16512928 -36.20898438 488.70898438 C-35.31735596 488.8763208 -34.42572754 489.04365723 -33.50708008 489.21606445 C-22.63666433 491.1696965 -11.93879216 491.6857136 -0.90625 491.65185547 C1.14916482 491.64652805 3.20435768 491.65181682 5.25976562 491.65820312 C18.54929384 491.66774185 31.56899313 491.053527 44.60351562 488.27148438 C45.67666016 488.04678467 46.74980469 487.82208496 47.85546875 487.59057617 C51.04531585 486.91403516 54.23064504 486.21874644 57.41601562 485.52148438 C58.2998291 485.33602051 59.18364258 485.15055664 60.09423828 484.95947266 C102.70842572 475.95342444 141.28387176 452.46272698 172.41601562 422.52148438 C173.15295654 421.81741455 173.15295654 421.81741455 173.90478516 421.09912109 C180.62812986 414.64697013 186.72643781 407.89864883 192.41601562 400.52148438 C193.04975098 399.70236572 193.04975098 399.70236572 193.69628906 398.86669922 C207.1718948 381.33069365 217.200126 362.59172299 226.41601562 342.52148438 C226.78871582 341.7314502 227.16141602 340.94141602 227.54541016 340.12744141 C230.04898216 334.71825527 231.83415522 329.26319123 233.41601562 323.52148438 C233.67165283 322.60794189 233.92729004 321.69439941 234.19067383 320.75317383 C240.30933743 298.6324438 244.6036399 276.97280165 244.60131836 253.94775391 C244.60348602 251.55417572 244.62164465 249.16107408 244.640625 246.76757812 C244.69946216 231.20835066 243.11910855 216.10933979 239.79101562 200.89648438 C239.53231689 199.70990234 239.27361816 198.52332031 239.00708008 197.30078125 C229.12606605 153.66957416 207.32196914 114.65671015 176.41601562 82.52148438 C175.94663574 82.03019043 175.47725586 81.53889648 174.99365234 81.03271484 C168.53673281 74.30440114 161.74872498 68.27282647 154.41601562 62.52148438 C153.47757812 61.75449219 152.53914063 60.9875 151.57226562 60.19726562 C134.44876269 46.49405 115.33791537 36.51221186 95.41601562 27.52148438 C94.71347656 27.19567383 94.0109375 26.86986328 93.28710938 26.53417969 C81.51607118 21.10475708 68.86753814 18.3168481 56.32641602 15.23974609 C53.95396775 14.65424632 51.59157749 14.04157752 49.22851562 13.41992188 C23.76027116 7.41818394 -3.78035747 8.04069113 -29.58398438 11.52148438 Z " fill="#FAEF0A" transform="translate(246.583984375,-0.521484375)"/>
<path d="M0 0 C4.68146504 1.51831299 4.68146504 1.51831299 6.28125 3.9375 C8.59473792 6.71368551 10.75767003 7.21736302 14.1875 8.25 C15.27417969 8.58515625 16.36085938 8.9203125 17.48046875 9.265625 C18.31191406 9.50796875 19.14335937 9.7503125 20 10 C20 11.32 20 12.64 20 14 C18.02 14 16.04 14 14 14 C14.495 15.98 14.495 15.98 15 18 C13.02 18 11.04 18 9 18 C9.495 20.97 9.495 20.97 10 24 C8.68 24 7.36 24 6 24 C7.37691962 26.75383923 9.36720042 27.51483101 12 29 C11.67 31.31 11.34 33.62 11 36 C11.721875 36.268125 12.44375 36.53625 13.1875 36.8125 C15.97590126 37.98982498 18.44095724 39.39145884 21 41 C20.67 41.99 20.34 42.98 20 44 C14.25 44.125 14.25 44.125 12 43 C11.34 45.64 10.68 48.28 10 51 C10.66 51 11.32 51 12 51 C11.9375 53.125 11.9375 53.125 11 56 C9.82866297 57.00321572 8.61496806 57.95796596 7.375 58.875 C5.44277967 60.32231545 5.44277967 60.32231545 4 62 C4.09308537 65.48618881 4.09308537 65.48618881 5 69 C4.33253323 73.3014525 3.34998089 76.04943793 0.1875 79 C-3 81 -3 81 -5.75 80.9375 C-8 80 -8 80 -10 78 C-11.96690374 77.32707499 -11.96690374 77.32707499 -14.125 76.875 C-15.40375 76.58625 -16.6825 76.2975 -18 76 C-18 75.34 -18 74.68 -18 74 C-18.66 74 -19.32 74 -20 74 C-20 74.99 -20 75.98 -20 77 C-22.64 77.33 -25.28 77.66 -28 78 C-28.66 77.01 -29.32 76.02 -30 75 C-32.32209582 74.78849981 -34.4867982 75.00389837 -36.80859375 75.1875 C-39 75 -39 75 -40.6953125 73.77734375 C-42.19550595 71.73366704 -42.77470664 70.00372025 -43.4375 67.5625 C-44.54384012 63.92430608 -44.54384012 63.92430608 -47 61.0625 C-50.92511398 57.0147262 -51.8149548 51.03549721 -52.3125 45.5625 C-52 43 -52 43 -50 40 C-46.04 40.33 -42.08 40.66 -38 41 C-37.67 38.69 -37.34 36.38 -37 34 C-33 32.66666667 -29 31.33333333 -25 30 C-23.99083967 28.23408113 -23.99083967 28.23408113 -23 26 C-19.44262295 20.14754098 -19.44262295 20.14754098 -16 19 C-16 18.34 -16 17.68 -16 17 C-14.02 17 -12.04 17 -10 17 C-9.67 14.69 -9.34 12.38 -9 10 C-7.35 9.67 -5.7 9.34 -4 9 C-3.896875 8.2575 -3.79375 7.515 -3.6875 6.75 C-2.95746496 3.82985982 -1.93210602 2.26812446 0 0 Z " fill="#039A42" transform="translate(241,182)"/>
<path d="M0 0 C2.3125 -0.1875 2.3125 -0.1875 5 0 C5.62841797 0.74056641 5.62841797 0.74056641 6.26953125 1.49609375 C8.84356869 3.73312403 11.02632121 3.26532576 14.375 3.25 C20.50662259 3.56843786 20.50662259 3.56843786 22.68359375 5.47265625 C23.43760544 6.70151268 24.15423817 7.95407741 24.83203125 9.2265625 C26.64556333 11.98021991 29.12544203 12.80539558 32.07421875 14.09375 C34.7109739 15.33457595 36.76611859 17.14906969 39 19 C39.99 19.33 40.98 19.66 42 20 C42.495 22.475 42.495 22.475 43 25 C45.97 24.34 48.94 23.68 52 23 C52 24.65 52 26.3 52 28 C53.32 28.66 54.64 29.32 56 30 C56 30.66 56 31.32 56 32 C56.66 32 57.32 32 58 32 C58 31.01 58 30.02 58 29 C56.68 28.34 55.36 27.68 54 27 C54 26.34 54 25.68 54 25 C55.32 25.33 56.64 25.66 58 26 C58 26.66 58 27.32 58 28 C59.98 28 61.96 28 64 28 C64 29.98 64 31.96 64 34 C65.485 34.495 65.485 34.495 67 35 C66.67 37.64 66.34 40.28 66 43 C66.66 43 67.32 43 68 43 C68 41.68 68 40.36 68 39 C68.99 39 69.98 39 71 39 C71.33 37.68 71.66 36.36 72 35 C73.65 35.33 75.3 35.66 77 36 C77 37.32 77 38.64 77 40 C73.535 40.495 73.535 40.495 70 41 C70 41.66 70 42.32 70 43 C70.66 43 71.32 43 72 43 C72.309375 44.216875 72.61875 45.43375 72.9375 46.6875 C74.6761052 51.45600455 77.48540575 52.89955015 81.94140625 54.9921875 C84 56 84 56 86 58 C86.33601415 60.46897352 86.55747271 62.83252497 86.6875 65.3125 C86.77386719 66.62863281 86.86023438 67.94476563 86.94921875 69.30078125 C86.99229486 72.43871022 86.77677628 74.98050123 86 78 C86.61488281 77.90460938 87.22976562 77.80921875 87.86328125 77.7109375 C88.67152344 77.60007812 89.47976562 77.48921875 90.3125 77.375 C91.11300781 77.25898438 91.91351563 77.14296875 92.73828125 77.0234375 C95 77 95 77 98 79 C99.155 79.165 100.31 79.33 101.5 79.5 C105 80 105 80 108 82 C110.67366737 82.35459768 110.67366737 82.35459768 113.5625 82.3125 C114.53316406 82.32925781 115.50382812 82.34601563 116.50390625 82.36328125 C117.32761719 82.24339844 118.15132813 82.12351562 119 82 C119.99 80.515 119.99 80.515 121 79 C122.77174819 79.08723378 124.54247377 79.19541655 126.3125 79.3125 C127.29863281 79.37050781 128.28476563 79.42851562 129.30078125 79.48828125 C132.24384457 80.04622813 133.18182999 80.68540132 135 83 C134.01 83 133.02 83 132 83 C132 83.99 132 84.98 132 86 C132.99 85.67 133.98 85.34 135 85 C139.86933714 84.49656006 143.7585086 84.32959464 148.125 86.6875 C150 89 150 89 150.3125 91.75 C150.1578125 92.86375 150.1578125 92.86375 150 94 C148.33388095 94.042721 146.66617115 94.04063832 145 94 C144.67 93.67 144.34 93.34 144 93 C142.32407764 92.93694587 140.64555376 92.94070758 138.96875 92.97265625 C137.92976562 92.98490234 136.89078125 92.99714844 135.8203125 93.00976562 C133.63794649 93.04442673 131.4556434 93.08336184 129.2734375 93.12695312 C123.5755577 93.18645187 118.5445387 92.85469607 113.02832031 91.43432617 C108.75600748 90.51949173 104.36844508 91.08450735 100.0390625 91.3203125 C97 91 97 91 95.41015625 89.0390625 C94.94480469 88.36617188 94.47945313 87.69328125 94 87 C91.50592748 86.3049261 91.50592748 86.3049261 88.8125 86.25 C87.91144531 86.19328125 87.01039063 86.1365625 86.08203125 86.078125 C85.39496094 86.05234375 84.70789063 86.0265625 84 86 C84.33 83.69 84.66 81.38 85 79 C83.28103516 79.39832031 83.28103516 79.39832031 81.52734375 79.8046875 C76.07611639 80.4739471 72.8993312 78.17371729 68.5625 75.125 C67.45261719 74.37585327 67.45261719 74.37585327 66.3203125 73.61157227 C53.30440316 64.60880633 53.30440316 64.60880633 50 58 C49.01 57.67 48.02 57.34 47 57 C46.32676943 54.72171642 46.0509564 52.47983723 45.72265625 50.12890625 C45.20385663 47.82804179 45.20385663 47.82804179 43.03125 46.875 C42.3609375 46.58625 41.690625 46.2975 41 46 C39.98812105 44.34051852 38.9873454 42.67419438 38 41 C37.01 40.67 36.02 40.34 35 40 C34.11328125 37.85546875 34.11328125 37.85546875 33.3125 35.1875 C31.93905724 31.31879402 31.93905724 31.31879402 29 28.625 C27.5738391 28.01378819 26.13767029 27.42527335 24.69140625 26.86328125 C24.13324219 26.57839844 23.57507813 26.29351562 23 26 C22.25 23.375 22.25 23.375 22 21 C20.2091232 19.92132575 20.2091232 19.92132575 18 19 C12.09391168 16.0362175 7.20596123 13.17656767 3 8 C2.625 5.125 2.625 5.125 3 3 C2.01 2.67 1.02 2.34 0 2 C0 1.34 0 0.68 0 0 Z " fill="#079B41" transform="translate(86,202)"/>
<path d="M0 0 C1.83304687 0.14501953 1.83304687 0.14501953 3.703125 0.29296875 C6.75 0.8125 6.75 0.8125 8.75 2.8125 C8.953125 4.8359375 8.953125 4.8359375 9 7.1875 C9.13032151 9.60444498 9.13032151 9.60444498 9.75 11.8125 C12.68942994 14.21771237 12.68942994 14.21771237 15.75 15.8125 C15.75 16.8025 15.75 17.7925 15.75 18.8125 C17.4 18.8125 19.05 18.8125 20.75 18.8125 C20.75 17.8225 20.75 16.8325 20.75 15.8125 C22.04103643 14.4381709 23.3756709 13.10353643 24.75 11.8125 C25.08 11.1525 25.41 10.4925 25.75 9.8125 C23.275 9.3175 23.275 9.3175 20.75 8.8125 C20.75 7.8225 20.75 6.8325 20.75 5.8125 C23.06 5.8125 25.37 5.8125 27.75 5.8125 C27.75 6.8025 27.75 7.7925 27.75 8.8125 C28.74 8.8125 29.73 8.8125 30.75 8.8125 C31.41 7.1625 32.07 5.5125 32.75 3.8125 C34.4 3.8125 36.05 3.8125 37.75 3.8125 C37.75 4.8025 37.75 5.7925 37.75 6.8125 C38.6575 6.750625 39.565 6.68875 40.5 6.625 C45.14508478 6.60604047 49.42371337 7.85984892 53.8828125 9.05859375 C56.48126145 9.74183714 59.11540061 10.28558012 61.75 10.8125 C61.75 25.6625 61.75 40.5125 61.75 55.8125 C60.43 54.8225 59.11 53.8325 57.75 52.8125 C55.01286305 52.43789184 52.52974416 52.67351279 49.75 52.8125 C49.75 53.4725 49.75 54.1325 49.75 54.8125 C44.8 55.3075 44.8 55.3075 39.75 55.8125 C39.75 54.1625 39.75 52.5125 39.75 50.8125 C40.41 50.8125 41.07 50.8125 41.75 50.8125 C42.0851832 46.00820741 41.29135789 43.82002591 38.75 39.8125 C38.02833809 37.49558546 37.34940471 35.16401077 36.75 32.8125 C32.68631321 32.03846442 28.88574827 31.7140298 24.75 31.8125 C24.255 29.8325 24.255 29.8325 23.75 27.8125 C21.11 27.8125 18.47 27.8125 15.75 27.8125 C15.42 26.8225 15.09 25.8325 14.75 24.8125 C12.44 24.8125 10.13 24.8125 7.75 24.8125 C7.255 22.3375 7.255 22.3375 6.75 19.8125 C5.43 22.4525 4.11 25.0925 2.75 27.8125 C1.76 27.8125 0.77 27.8125 -0.25 27.8125 C-0.91 25.5025 -1.57 23.1925 -2.25 20.8125 C-3.9 20.4825 -5.55 20.1525 -7.25 19.8125 C-6.92 18.8225 -6.59 17.8325 -6.25 16.8125 C-5.280625 16.68875 -4.31125 16.565 -3.3125 16.4375 C-2.301875 16.23125 -1.29125 16.025 -0.25 15.8125 C0.08 15.1525 0.41 14.4925 0.75 13.8125 C-1.56 14.1425 -3.87 14.4725 -6.25 14.8125 C-6.91 12.8325 -7.57 10.8525 -8.25 8.8125 C-11.22 8.3175 -11.22 8.3175 -14.25 7.8125 C-14.125 5.5 -14.125 5.5 -13.25 2.8125 C-8.65995804 -0.1510406 -5.3780128 -0.48630967 0 0 Z " fill="#069B42" transform="translate(360.25,225.1875)"/>
<path d="M0 0 C3.96395898 0.59468321 6.86631557 1.82724439 10.34375 3.80078125 C11.34277344 4.36603516 12.34179688 4.93128906 13.37109375 5.51367188 C14.40363281 6.10728516 15.43617188 6.70089844 16.5 7.3125 C17.53253906 7.89451172 18.56507813 8.47652344 19.62890625 9.07617188 C31.59552163 15.89328244 31.59552163 15.89328244 35 21 C35.4775733 25.85532856 35.51341394 28.04398784 33.1875 32.375 C31 35 31 35 28 37 C25.51953125 37.1953125 25.51953125 37.1953125 22.8125 37.125 C21.91144531 37.10695312 21.01039063 37.08890625 20.08203125 37.0703125 C19.39496094 37.04710937 18.70789063 37.02390625 18 37 C18.42330402 39.44075297 18.86289462 41.87657829 19.3125 44.3125 C19.48942383 45.34793945 19.48942383 45.34793945 19.66992188 46.40429688 C20.39194526 50.23657483 21.02753692 52.45577313 24 55 C23.8125 57.625 23.8125 57.625 23 60 C22.01 60.495 22.01 60.495 21 61 C18.43359375 59.8203125 18.43359375 59.8203125 15.4375 58.125 C14.44621094 57.57070312 13.45492187 57.01640625 12.43359375 56.4453125 C10 55 10 55 9 54 C8.70244739 52.29780482 8.46157961 50.58561171 8.24609375 48.87109375 C8.04790039 47.31938477 8.04790039 47.31938477 7.84570312 45.73632812 C7.71099609 44.64771484 7.57628906 43.55910156 7.4375 42.4375 C7.29892578 41.34501953 7.16035156 40.25253906 7.01757812 39.12695312 C6.67457681 36.41842553 6.33556485 33.70945731 6 31 C4.68 30.67 3.36 30.34 2 30 C0.38935371 33.65079826 -0.44894091 37.0507432 -1 41 C-0.34 41.33 0.32 41.66 1 42 C0.49396008 44.16874252 0.00016187 45.99967627 -1 48 C-5.76551013 46.62394084 -9.7248553 44.53221934 -13.875 41.875 C-14.46796875 41.50246094 -15.0609375 41.12992188 -15.671875 40.74609375 C-17.1181343 39.83635 -18.55958046 38.91896202 -20 38 C-19.34 36.35 -18.68 34.7 -18 33 C-16.02 33 -14.04 33 -12 33 C-10.01336816 29.42075685 -8.03700964 25.83594259 -6.0625 22.25 C-5.21655273 20.72632813 -5.21655273 20.72632813 -4.35351562 19.171875 C-3.81533203 18.1921875 -3.27714844 17.2125 -2.72265625 16.203125 C-2.22515869 15.30239258 -1.72766113 14.40166016 -1.21508789 13.47363281 C-0.12482081 11.25410577 0.72054968 9.45543241 1 7 C0.34 6.34 -0.32 5.68 -1 5 C-0.625 2.375 -0.625 2.375 0 0 Z " fill="#E60912" transform="translate(307,104)"/>
<path d="M0 0 C3.23861303 1.44424635 5.61969163 3.25772247 8.25 5.625 C8.95640625 6.25664063 9.6628125 6.88828125 10.390625 7.5390625 C10.92171875 8.02117187 11.4528125 8.50328125 12 9 C11.125 12.875 11.125 12.875 10 14 C7.5 14.125 7.5 14.125 5 14 C4.67 13.67 4.34 13.34 4 13 C-0.75962701 12.38876369 -4.22307806 12.61835413 -8.5625 14.75 C-9.7690625 15.86375 -9.7690625 15.86375 -11 17 C-11 18.32 -11 19.64 -11 21 C-6.13289668 21.44246394 -2.67464623 20.66013882 1.9375 19 C7.5034173 17.05678698 12.23149009 15.47020885 17.97265625 17.80078125 C21.18394411 19.50863249 22.96990167 20.95485251 25 24 C25.8639767 29.12019874 25.57447562 33.752991 23 38.3125 C20.08867354 42.35555336 16.65874864 45.18589861 12 47 C9.18232278 47.36961013 6.85682957 47.25507407 4 47 C4 48.65 4 50.3 4 52 C2.359375 52.83984375 2.359375 52.83984375 0 53 C-2.1302685 51.24163592 -3.8949842 49.57575206 -5.75 47.5625 C-6.50990234 46.76875977 -6.50990234 46.76875977 -7.28515625 45.95898438 C-8.53495869 44.65022899 -9.76902618 43.32648041 -11 42 C-10.1875 40.0625 -10.1875 40.0625 -9 38 C-6 37 -6 37 -4.1484375 37.921875 C-3.43945312 38.27765625 -2.73046875 38.6334375 -2 39 C3.91550776 39.60763524 9.48721247 39.38390812 15 37 C15.38063221 34.6739143 15.71269945 32.33944736 16 30 C15.67 29.67 15.34 29.34 15 29 C10.31098394 29.04186621 5.99358441 29.89865287 1.625 31.5625 C-3.5517167 33.39705574 -8.56030535 33.78698285 -14 33 C-17.53536291 30.97979262 -19.76937948 28.91561075 -21 25 C-21.72773852 20.2696996 -21.08877535 17.62741456 -18.375 13.8125 C-14.55046098 9.19080882 -11.12666388 6.41161236 -5.125 5.25 C-3.578125 5.12625 -3.578125 5.12625 -2 5 C-1.855625 4.360625 -1.71125 3.72125 -1.5625 3.0625 C-1 1 -1 1 0 0 Z " fill="#E60A12" transform="translate(176,110)"/>
<path d="M0 0 C3.96 0 7.92 0 12 0 C12.98261961 2.50685743 13.96507793 5.01377817 14.94677734 7.52099609 C15.77515713 9.63514129 16.60491416 11.74874735 17.43603516 13.86181641 C20.96576899 22.85228063 20.96576899 22.85228063 22.60546875 27.38671875 C23.02441406 28.53785156 23.44335938 29.68898438 23.875 30.875 C24.22304688 31.86242187 24.57109375 32.84984375 24.9296875 33.8671875 C25.85908404 36.34528953 25.85908404 36.34528953 29 37 C29 38.98 29 40.96 29 43 C22.4 43 15.8 43 9 43 C9 41.35 9 39.7 9 38 C10.485 37.505 10.485 37.505 12 37 C11.67 34.69 11.34 32.38 11 30 C4.07 29.505 4.07 29.505 -3 29 C-3.33 31.64 -3.66 34.28 -4 37 C-2.68 37 -1.36 37 0 37 C0 38.98 0 40.96 0 43 C-5.61 43 -11.22 43 -17 43 C-17 41.02 -17 39.04 -17 37 C-15.515 36.505 -15.515 36.505 -14 36 C-12.73825504 33.34709549 -11.6648629 30.77266691 -10.64453125 28.02734375 C-10.18478157 26.83087975 -10.18478157 26.83087975 -9.71574402 25.61024475 C-8.73729901 23.05659871 -7.77478334 20.4972744 -6.8125 17.9375 C-6.1527315 16.20728582 -5.49193706 14.47746248 -4.83007812 12.74804688 C-3.20810365 8.50314491 -1.60039193 4.25308337 0 0 Z " fill="#E60812" transform="translate(240,94)"/>
<path d="M0 0 C5.74171822 3.5088278 7.95902927 7.80679397 9.5546875 14.234375 C11.04357179 23.48113008 11.47498805 34.01564243 6 42 C3.4335554 45.02473827 2.08056222 44.98976988 -1.9375 45.5 C-5.28235924 45.36322137 -5.98448508 45.01172238 -8.8125 42.875 C-15.94580994 33.49979265 -16.86822353 23.46055066 -16 12 C-15.16169917 8.02266029 -13.59661718 4.91787258 -11.375 1.5 C-7.66806037 -0.84122503 -4.25057196 -0.84125903 0 0 Z " fill="#E70F11" transform="translate(262,364)"/>
<path d="M0 0 C0.99 0.33 1.98 0.66 3 1 C3 3.6875 3 3.6875 2 7 C-4.80273024 13.55977559 -12.97887506 13.03631012 -21.8125 12.9375 C-22.89144531 12.90527344 -23.97039062 12.87304688 -25.08203125 12.83984375 C-28.01526145 13.00083764 -29.59143235 13.3549876 -32 15 C-33.16977494 17.34872531 -33.16977494 17.34872531 -33 20 C-31.43695474 22.47981752 -31.43695474 22.47981752 -29 24 C-26.10430528 23.52846725 -23.3887511 22.46973723 -20.625 21.5 C-17.10038236 20.30570807 -13.70316284 19.47476447 -10 19 C-10 20.32 -10 21.64 -10 23 C-9.01 23 -8.02 23 -7 23 C-7 23.99 -7 24.98 -7 26 C-8.65 26 -10.3 26 -12 26 C-12.33 25.34 -12.66 24.68 -13 24 C-13.66 24 -14.32 24 -15 24 C-15 24.66 -15 25.32 -15 26 C-16.65 26.66 -18.3 27.32 -20 28 C-20 28.66 -20 29.32 -20 30 C-18.68 30 -17.36 30 -16 30 C-16.020625 30.804375 -16.04125 31.60875 -16.0625 32.4375 C-16.29633621 34.93354885 -16.29633621 34.93354885 -15 36 C-14.95919217 37.99958364 -14.95745644 40.00045254 -15 42 C-13.68 42.33 -12.36 42.66 -11 43 C-11 44.32 -11 45.64 -11 47 C-11.99 47.495 -11.99 47.495 -13 48 C-12.773125 48.598125 -12.54625 49.19625 -12.3125 49.8125 C-12 52 -12 52 -13.125 53.75 C-15.53854651 55.35903101 -17.15673536 55.23053497 -20 55 C-20.18175781 54.36191406 -20.36351562 53.72382813 -20.55078125 53.06640625 C-20.80214844 52.24011719 -21.05351562 51.41382813 -21.3125 50.5625 C-21.55613281 49.73878906 -21.79976563 48.91507812 -22.05078125 48.06640625 C-22.36402344 47.38449219 -22.67726563 46.70257813 -23 46 C-24.485 45.505 -24.485 45.505 -26 45 C-26.33 42.36 -26.66 39.72 -27 37 C-27.99 37 -28.98 37 -30 37 C-29.34 37.99 -28.68 38.98 -28 40 C-27.77294922 41.90112305 -27.77294922 41.90112305 -27.8046875 44.01171875 C-27.81435547 45.14770508 -27.81435547 45.14770508 -27.82421875 46.30664062 C-27.84097656 47.09232422 -27.85773438 47.87800781 -27.875 48.6875 C-27.88402344 49.48478516 -27.89304687 50.28207031 -27.90234375 51.10351562 C-27.92588415 53.069139 -27.96175453 55.03460775 -28 57 C-30.64738916 58.4606285 -31.89448334 59 -35 59 C-36.50156874 55.99686252 -36.09281204 53.20932478 -36.0625 49.875 C-36.05347656 48.59367187 -36.04445313 47.31234375 -36.03515625 45.9921875 C-36.02355469 45.00476563 -36.01195312 44.01734375 -36 43 C-37.65 42.67 -39.3 42.34 -41 42 C-41.16286995 39.14977582 -41.09302712 37.22675361 -40 34.5625 C-38.83079435 31.56641052 -38.85170456 29.18835189 -39 26 C-38.34 26 -37.68 26 -37 26 C-36.67 21.38 -36.34 16.76 -36 12 C-35.34 12 -34.68 12 -34 12 C-33.67 11.01 -33.34 10.02 -33 9 C-32.01 8.67 -31.02 8.34 -30 8 C-29.67 7.34 -29.34 6.68 -29 6 C-28.14664062 6.15210938 -27.29328125 6.30421875 -26.4140625 6.4609375 C-23.06499817 6.98973713 -19.75368066 7.34805896 -16.375 7.625 C-14.71597656 7.76808594 -14.71597656 7.76808594 -13.0234375 7.9140625 C-10.30753264 7.99125876 -8.49084992 8.02976696 -6 7 C-4.24399324 5.39255122 -4.24399324 5.39255122 -2.75 3.4375 C-2.22921875 2.79683594 -1.7084375 2.15617188 -1.171875 1.49609375 C-0.78515625 1.00238281 -0.3984375 0.50867188 0 0 Z " fill="#109E3F" transform="translate(303,213)"/>
<path d="M0 0 C3.86142204 0.78383567 6.01328244 2.42810432 9 5 C7.50640515 9.84286815 5.54966433 14.31350896 3.375 18.875 C3.05015625 19.56335938 2.7253125 20.25171875 2.390625 20.9609375 C1.59676528 22.64205219 0.79880442 24.32122921 0 26 C0.46374023 25.63648438 0.92748047 25.27296875 1.40527344 24.8984375 C3.51256432 23.25557204 5.63100667 21.62773882 7.75 20 C8.47960937 19.42765625 9.20921875 18.8553125 9.9609375 18.265625 C10.66992188 17.72421875 11.37890625 17.1828125 12.109375 16.625 C12.75874023 16.12226563 13.40810547 15.61953125 14.07714844 15.1015625 C16 14 16 14 20 14 C22.24675342 15.44286917 24.01317985 17.19379986 26 19 C21.89111823 24.53983563 17.69354712 29.99699622 13.375 35.375 C12.81554687 36.08527344 12.25609375 36.79554688 11.6796875 37.52734375 C10.85984375 38.54634766 10.85984375 38.54634766 10.0234375 39.5859375 C9.53794434 40.1948584 9.05245117 40.8037793 8.55224609 41.43115234 C6.84107661 43.16062311 5.21948087 44.03597097 3 45 C2.01 43.68 1.02 42.36 0 41 C4.93193336 34.9392019 9.8822488 28.90509753 15 23 C14.32517578 23.51046875 14.32517578 23.51046875 13.63671875 24.03125 C12.26008026 25.06855676 10.87947906 26.1006145 9.49609375 27.12890625 C7.70358429 28.47258705 5.92664252 29.83713025 4.16015625 31.21484375 C2.71962891 32.31505859 2.71962891 32.31505859 1.25 33.4375 C0.34765625 34.13746094 -0.5546875 34.83742188 -1.484375 35.55859375 C-4 37 -4 37 -6.203125 36.97265625 C-8.610248 35.66967011 -9.10329089 34.56641417 -10 32 C-9.40087891 29.80175781 -9.40087891 29.80175781 -8.2265625 27.453125 C-7.6078125 26.18662109 -7.6078125 26.18662109 -6.9765625 24.89453125 C-6.53054687 24.02183594 -6.08453125 23.14914062 -5.625 22.25 C-5.18671875 21.36183594 -4.7484375 20.47367187 -4.296875 19.55859375 C-3.21185351 17.36496334 -2.11265262 15.17970992 -1 13 C-1.38236816 13.44802979 -1.76473633 13.89605957 -2.15869141 14.35766602 C-5.19898978 17.91351795 -8.26002754 21.44658258 -11.375 24.9375 C-12.06335938 25.70964844 -12.75171875 26.48179687 -13.4609375 27.27734375 C-13.96882813 27.84582031 -14.47671875 28.41429687 -15 29 C-16.32 28.34 -17.64 27.68 -19 27 C-19 22.04659809 -17.13568729 20.35414168 -14 16.875 C-12.99234774 15.72365459 -11.98584883 14.57129882 -10.98046875 13.41796875 C-10.47821777 12.8461084 -9.9759668 12.27424805 -9.45849609 11.68505859 C-6.17833501 7.89535793 -3.10109847 3.93635135 0 0 Z " fill="#F0EB03" transform="translate(114,396)"/>
<path d="M0 0 C11.39053108 -0.10313358 22.64764338 -0.05253638 34 1 C34 3.31 34 5.62 34 8 C26.41 7.67 18.82 7.34 11 7 C18.26 9.31 25.52 11.62 33 14 C33 16.31 33 18.62 33 21 C25.74 22.32 18.48 23.64 11 25 C18.26 25.66 25.52 26.32 33 27 C33 28.98 33 30.96 33 33 C5.76907426 33.25635809 5.76907426 33.25635809 -1 31 C-1 27.7 -1 24.4 -1 21 C5.93 19.68 12.86 18.36 20 17 C13.39894894 14.26527885 6.86994125 11.96284036 0 10 C0 6.7 0 3.4 0 0 Z " fill="#EFEB04" transform="translate(448,245)"/>
<path d="M0 0 C3.16980784 1.38961801 5.1851351 2.98797455 7.53125 5.51953125 C8.17707031 6.21240234 8.82289063 6.90527344 9.48828125 7.61914062 C10.15214844 8.34294922 10.81601562 9.06675781 11.5 9.8125 C12.16386719 10.52470703 12.82773437 11.23691406 13.51171875 11.97070312 C16.82207826 15.54205904 20.02612021 19.13850814 23 23 C22.34 24.65 21.68 26.3 21 28 C17.35272429 27.44255611 15.94155692 26.19184621 13.625 23.375 C13.02816406 22.66085937 12.43132812 21.94671875 11.81640625 21.2109375 C11.21699219 20.48132813 10.61757813 19.75171875 10 19 C8.85691169 17.66431257 7.71130835 16.3307709 6.5625 15 C5.716875 14.01 4.87125 13.02 4 12 C5.10164118 14.23044611 6.20621894 16.45935646 7.3125 18.6875 C7.7755957 19.62625977 7.7755957 19.62625977 8.24804688 20.58398438 C9.64386609 23.39031564 11.06883237 26.11016287 12.73046875 28.76953125 C14 31 14 31 14 34 C12.75 35.75 12.75 35.75 11 37 C7.08578439 36.58751539 4.30443755 34.36780132 1.125 32.1875 C-0.38707031 31.15689453 -0.38707031 31.15689453 -1.9296875 30.10546875 C-2.94289063 29.41066406 -3.95609375 28.71585937 -5 28 C-6.99612898 26.66074594 -8.99763386 25.32992975 -11 24 C-10.57589844 24.4125 -10.15179688 24.825 -9.71484375 25.25 C-6.43074814 28.48357106 -3.22012699 31.77196648 -0.125 35.1875 C0.44992187 35.82042969 1.02484375 36.45335937 1.6171875 37.10546875 C3.06976306 39.09557934 3.58349303 40.59173534 4 43 C2.35 43.66 0.7 44.32 -1 45 C-3.56540281 42.29440385 -6.12678578 39.5850335 -8.6875 36.875 C-9.40873047 36.11445313 -10.12996094 35.35390625 -10.87304688 34.5703125 C-14.72895772 30.48551197 -18.46435757 26.36550722 -22 22 C-20.55746343 18.63408134 -18.66735273 16.48952921 -16 14 C-12.01287679 15.83246572 -8.41915496 18.23855775 -4.75 20.625 C-4.1003125 21.04523438 -3.450625 21.46546875 -2.78125 21.8984375 C-1.18631119 22.93045673 0.40700669 23.96498028 2 25 C1.11411106 19.83653306 -2.01144268 15.5573557 -4.6015625 11.09375 C-6 8 -6 8 -5.87109375 5.734375 C-4.53398378 3.07214707 -2.38139312 1.70971814 0 0 Z " fill="#F0EB03" transform="translate(386,393)"/>
<path d="M0 0 C4.32110254 2.07745315 5.70638919 3.19924325 7.375 7.75 C7.58125 8.8225 7.7875 9.895 8 11 C8.99 10.34 9.98 9.68 11 9 C13.33984375 8.33203125 13.33984375 8.33203125 15.9375 7.8125 C16.79214844 7.63332031 17.64679688 7.45414062 18.52734375 7.26953125 C21.01134859 6.99876295 22.64449502 7.22940556 25 8 C22.69595782 13.57820738 22.69595782 13.57820738 19.9375 15.25 C16.38801916 16.15625043 12.81935342 16.83093316 9.20703125 17.4375 C6.81161433 17.84800782 6.81161433 17.84800782 5 20 C4.3574765 22.06874034 4.3574765 22.06874034 4 24 C5.051875 24.28875 6.10375 24.5775 7.1875 24.875 C10.22818711 25.77225193 13.08712344 26.76423419 16 28 C15.505 30.475 15.505 30.475 15 33 C11.73771811 34.09171031 9.96474091 33.92249489 6.76953125 32.70703125 C5.56393555 32.25553711 5.56393555 32.25553711 4.33398438 31.79492188 C3.50189453 31.47072266 2.66980469 31.14652344 1.8125 30.8125 C0.99974609 30.50763672 0.18699219 30.20277344 -0.65039062 29.88867188 C-6.19014336 27.78647454 -11.61020094 25.45948581 -17 23 C-16.39451022 18.2363274 -15.05745384 14.22937832 -13.1875 9.8125 C-12.68605469 8.60207031 -12.18460937 7.39164062 -11.66796875 6.14453125 C-8.83691728 0.80730307 -6.03254593 -0.84455643 0 0 Z " fill="#EFEB03" transform="translate(446,314)"/>
<path d="M0 0 C2.68234235 2.42457972 4.36856725 5.07510397 6.1875 8.1875 C6.71730469 9.08855469 7.24710937 9.98960937 7.79296875 10.91796875 C8.19128906 11.60503906 8.58960938 12.29210937 9 13 C9.81984375 12.7834375 10.6396875 12.566875 11.484375 12.34375 C12.56203125 12.0653125 13.6396875 11.786875 14.75 11.5 C15.81734375 11.2215625 16.8846875 10.943125 17.984375 10.65625 C21 10 21 10 25 10 C23.19465363 14.10555926 20.46177661 16.82078231 17.36328125 20 C15.79740156 21.86326725 15.79740156 21.86326725 16.1015625 23.9296875 C17.21207723 26.4886997 18.57325753 28.76615258 20.0625 31.125 C23 35.78352941 23 35.78352941 23 38 C22.43152344 37.80664062 21.86304688 37.61328125 21.27734375 37.4140625 C20.50519531 37.15367187 19.73304688 36.89328125 18.9375 36.625 C18.18339844 36.36976563 17.42929687 36.11453125 16.65234375 35.8515625 C13.4553284 34.82512753 10.23190411 33.90983837 7 33 C6.28972656 33.86625 5.57945312 34.7325 4.84765625 35.625 C3.91942578 36.75012785 2.99103194 37.87512093 2.0625 39 C1.59392578 39.57234375 1.12535156 40.1446875 0.64257812 40.734375 C-0.54934328 42.17497065 -1.77232588 43.58974871 -3 45 C-3.33 45 -3.66 45 -4 45 C-3.505 36.09 -3.505 36.09 -3 27 C-4.65 26.67 -6.3 26.34 -8 26 C-9.7853143 25.35103174 -11.55694608 24.66312895 -13.3125 23.9375 C-14.19550781 23.57527344 -15.07851563 23.21304688 -15.98828125 22.83984375 C-16.65214844 22.56269531 -17.31601562 22.28554687 -18 22 C-18 21.34 -18 20.68 -18 20 C-15.89679937 19.49595192 -13.79240209 18.99689492 -11.6875 18.5 C-10.51574219 18.2215625 -9.34398437 17.943125 -8.13671875 17.65625 C-5 17 -5 17 -2 17 C-1.90912109 15.91332031 -1.90912109 15.91332031 -1.81640625 14.8046875 C-1.38516567 9.82883467 -0.92952359 4.91319609 0 0 Z " fill="#F1EC03" transform="translate(424,120)"/>
<path d="M0 0 C2 1 2 1 3.0703125 3.6171875 C3.41835937 4.69226563 3.76640625 5.76734375 4.125 6.875 C4.47820312 7.94492187 4.83140625 9.01484375 5.1953125 10.1171875 C6 13 6 13 6 16 C11.28 16 16.56 16 22 16 C15.7 22.3 15.7 22.3 12 25 C11.34 25 10.68 25 10 25 C10.30035156 25.89203125 10.60070312 26.7840625 10.91015625 27.703125 C11.29042969 28.87359375 11.67070312 30.0440625 12.0625 31.25 C12.44535156 32.41015625 12.82820313 33.5703125 13.22265625 34.765625 C13.95211763 37.80077085 14.11889082 39.15703213 13 42 C12.25234375 41.41089844 11.5046875 40.82179687 10.734375 40.21484375 C9.74953125 39.46332031 8.7646875 38.71179687 7.75 37.9375 C6.77546875 37.18339844 5.8009375 36.42929687 4.796875 35.65234375 C2.24424008 33.81629846 2.24424008 33.81629846 -0.0703125 34.03125 C-2.5349466 35.26855619 -4.50106309 36.80439169 -6.625 38.5625 C-10.78873239 42 -10.78873239 42 -13 42 C-12.21450457 36.18733381 -10.59317541 30.63122376 -9 25 C-9.57234375 24.73316406 -10.1446875 24.46632813 -10.734375 24.19140625 C-13.09311961 22.95103193 -15.123112 21.54054336 -17.25 19.9375 C-17.95640625 19.41027344 -18.6628125 18.88304688 -19.390625 18.33984375 C-19.92171875 17.89769531 -20.4528125 17.45554687 -21 17 C-21 16.67 -21 16.34 -21 16 C-15.39 16 -9.78 16 -4 16 C-3.67 13.36 -3.34 10.72 -3 8 C-2.1730456 5.22348989 -1.10365568 2.68716166 0 0 Z " fill="#F3EC03" transform="translate(247,15)"/>
<path d="M0 0 C0.44730469 0.38671875 0.89460937 0.7734375 1.35546875 1.171875 C4.8521026 4.18390075 8.37407463 7.14321031 12 10 C16.31751171 8.46797972 20.09337935 6.263614 24.01171875 3.92578125 C24.66785156 3.62027344 25.32398438 3.31476562 26 3 C26.66 3.33 27.32 3.66 28 4 C27.54367188 4.89203125 27.08734375 5.7840625 26.6171875 6.703125 C25.75480469 8.45882812 25.75480469 8.45882812 24.875 10.25 C24.29492188 11.41015625 23.71484375 12.5703125 23.1171875 13.765625 C21.73512829 16.80454127 21.73512829 16.80454127 22.5625 19.1953125 C24.24088688 21.30241777 26.03538596 22.92484807 28.125 24.625 C29.45281461 25.70709803 30.75453824 26.82405239 32 28 C32 28.66 32 29.32 32 30 C26.72 30 21.44 30 16 30 C14.02 34.62 12.04 39.24 10 44 C8.04020631 41.06030946 7.51679931 39.44977414 6.875 36.0625 C6.70742187 35.20785156 6.53984375 34.35320312 6.3671875 33.47265625 C6 31 6 31 6 27 C5.443125 27.01160156 4.88625 27.02320312 4.3125 27.03515625 C-0.89778343 27.09676433 -5.8437951 26.74999344 -11 26 C-11 25.34 -11 24.68 -11 24 C-6.71 21.69 -2.42 19.38 2 17 C1.855625 15.865625 1.71125 14.73125 1.5625 13.5625 C0.99698633 9.04646944 0.49225191 4.52452819 0 0 Z " fill="#F6ED02" transform="translate(133,46)"/>
<path d="M0 0 C-0.144375 0.64066406 -0.28875 1.28132813 -0.4375 1.94140625 C-0.7159375 3.23884766 -0.7159375 3.23884766 -1 4.5625 C-1.185625 5.40941406 -1.37125 6.25632812 -1.5625 7.12890625 C-2.17574904 10.66931381 -2.17574904 10.66931381 -2 17 C4.435 20.465 4.435 20.465 11 24 C11 24.33 11 24.66 11 25 C5.39 25.66 -0.22 26.32 -6 27 C-6.309375 28.711875 -6.61875 30.42375 -6.9375 32.1875 C-7.59025242 35.79939671 -8.27005441 39.40288072 -9 43 C-11.91226879 41.5438656 -12.31842064 39.50039336 -13.625 36.5625 C-14.07101562 35.57378906 -14.51703125 34.58507812 -14.9765625 33.56640625 C-16 31 -16 31 -16 29 C-17.7015625 29.2475 -17.7015625 29.2475 -19.4375 29.5 C-23.97060294 30.07576084 -28.43747238 30.09505266 -33 30 C-32.06409496 28.8944811 -31.12620142 27.79064547 -30.1875 26.6875 C-29.40439453 25.76517578 -29.40439453 25.76517578 -28.60546875 24.82421875 C-25.6626898 21.48047722 -25.6626898 21.48047722 -24 20 C-23.34 20 -22.68 20 -22 20 C-22.26554687 19.34773438 -22.53109375 18.69546875 -22.8046875 18.0234375 C-24.67827997 13.38732183 -26.49315006 8.77169146 -28 4 C-24.4740168 5.03199508 -21.47658232 6.25152313 -18.375 8.1875 C-15.35500608 10.1854538 -15.35500608 10.1854538 -13.078125 9.8984375 C-10.1750725 8.64335841 -8.52731951 6.73738657 -6.375 4.4375 C-2.2074883 0 -2.2074883 0 0 0 Z " fill="#F5ED02" transform="translate(365,45)"/>
<path d="M0 0 C0.33 0 0.66 0 1 0 C1 5.61 1 11.22 1 17 C2.711875 17.45375 4.42375 17.9075 6.1875 18.375 C9.91415112 19.36278704 13.44496838 20.50519694 17 22 C14.37575342 23.74949772 12.44272784 24.65389981 9.5 25.625 C8.33984375 26.01558594 8.33984375 26.01558594 7.15625 26.4140625 C5 27 5 27 2 27 C2 32.61 2 38.22 2 44 C-2.03919345 39.96080655 -4.84168113 36.60212178 -8 32 C-14.04784304 33.21498948 -14.04784304 33.21498948 -19.875 35.1875 C-22 36 -22 36 -25 35 C-24.41089844 34.26394531 -23.82179687 33.52789062 -23.21484375 32.76953125 C-22.46332031 31.79371094 -21.71179687 30.81789062 -20.9375 29.8125 C-20.18339844 28.84957031 -19.42929687 27.88664062 -18.65234375 26.89453125 C-16.78147954 24.18451812 -16.78147954 24.18451812 -17.03125 21.4375 C-18.16680669 18.58029284 -19.61326123 16.56202723 -21.5625 14.1875 C-22.20316406 13.39730469 -22.84382813 12.60710937 -23.50390625 11.79296875 C-23.99761719 11.20128906 -24.49132813 10.60960937 -25 10 C-21.1280483 8.70934943 -18.55767399 9.77675902 -14.8125 10.9375 C-14.15830078 11.13279297 -13.50410156 11.32808594 -12.83007812 11.52929688 C-11.21772593 12.01182563 -9.60853711 12.50490205 -8 13 C-7.73316406 12.26394531 -7.46632813 11.52789062 -7.19140625 10.76953125 C-6.02598943 8.06041478 -4.72535547 6.02005836 -2.9375 3.6875 C-2.41027344 2.99011719 -1.88304688 2.29273437 -1.33984375 1.57421875 C-0.89769531 1.05472656 -0.45554687 0.53523438 0 0 Z " fill="#F6ED02" transform="translate(74,122)"/>
<path d="M0 0 C2.475 0.495 2.475 0.495 5 1 C4.36306741 4.5922998 3.4129328 7.87918241 2.15234375 11.30078125 C1.79462891 12.27724609 1.43691406 13.25371094 1.06835938 14.25976562 C0.69517578 15.26716797 0.32199219 16.27457031 -0.0625 17.3125 C-0.43955078 18.33923828 -0.81660156 19.36597656 -1.20507812 20.42382812 C-2.13346068 22.95043887 -3.06520129 25.47575761 -4 28 C-3.67 28.33 -3.34 28.66 -3 29 C-1.45702052 27.3137003 0.08431225 25.6258938 1.625 23.9375 C2.08213379 23.43887451 2.53926758 22.94024902 3.01025391 22.42651367 C5.56608448 19.6261298 8.01018939 16.77460814 10.375 13.8125 C11.674375 12.4203125 11.674375 12.4203125 13 11 C14.32 11 15.64 11 17 11 C16.58878639 15.88986614 14.16804309 18.45001547 10.875 21.8125 C9.86390662 22.87826466 8.85348915 23.94467096 7.84375 25.01171875 C7.35261719 25.52524902 6.86148438 26.0387793 6.35546875 26.56787109 C4.64344294 28.37672257 3.00267234 30.24012472 1.375 32.125 C-2.68549728 36.80790928 -6.84441511 41.40152964 -11 46 C-12.32 45.67 -13.64 45.34 -15 45 C-14.48864775 38.11703639 -12.48692361 32.3845669 -9.9375 26 C-9.56044922 25.03449219 -9.18339844 24.06898438 -8.79492188 23.07421875 C-7.87140115 20.71281132 -6.93964767 18.3550259 -6 16 C-8.74936857 18.69367234 -11.41077287 21.42382832 -13.97265625 24.296875 C-14.73352539 25.14572266 -14.73352539 25.14572266 -15.50976562 26.01171875 C-16.55443039 27.18121767 -17.59341481 28.3558129 -18.62695312 29.53515625 C-21.31502525 32.51429351 -23.03749485 34.28871307 -27 35 C-26.66471355 29.12366382 -24.32970603 26.59395936 -20.375 22.625 C-19.27402505 21.47855035 -18.17376111 20.33141745 -17.07421875 19.18359375 C-16.54231934 18.63558105 -16.01041992 18.08756836 -15.46240234 17.52294922 C-13.64338733 15.62862274 -11.90587889 13.67326966 -10.1875 11.6875 C-9.66414063 11.08292969 -9.14078125 10.47835938 -8.6015625 9.85546875 C-7.80878906 8.93701172 -7.80878906 8.93701172 -7 8 C-5.68841779 6.49919743 -4.3759259 4.99918933 -3.0625 3.5 C-2.47597656 2.8296875 -1.88945312 2.159375 -1.28515625 1.46875 C-0.86105469 0.9840625 -0.43695313 0.499375 0 0 Z " fill="#E71011" transform="translate(167,331)"/>
<path d="M0 0 C1.32 0 2.64 0 4 0 C5.38950354 4.14362971 6.77696087 8.28793744 8.16259766 12.43286133 C8.63340178 13.84027201 9.10474628 15.24750205 9.57666016 16.65454102 C10.25828939 18.68717957 10.93791626 20.72047866 11.6171875 22.75390625 C12.02565918 23.97408447 12.43413086 25.1942627 12.85498047 26.45141602 C16.29601828 37.11569843 16.29601828 37.11569843 16 42 C13.525 42.495 13.525 42.495 11 43 C4.98084343 35.34816082 -1.03560785 27.69467656 -7 20 C-6.18784945 22.60427612 -5.37529393 25.20842468 -4.5625 27.8125 C-4.33240234 28.55048828 -4.10230469 29.28847656 -3.86523438 30.04882812 C-2.9312816 33.04018411 -1.99100896 36.02697312 -1 39 C-0.93259135 40.56118428 -0.91485544 42.1250252 -0.9375 43.6875 C-0.94652344 44.49574219 -0.95554687 45.30398438 -0.96484375 46.13671875 C-0.97644531 46.75160156 -0.98804688 47.36648438 -1 48 C-2.88867188 47.76464844 -2.88867188 47.76464844 -5 47 C-6.03320312 45.16503906 -6.03320312 45.16503906 -6.78125 42.765625 C-7.20555298 41.44836426 -7.20555298 41.44836426 -7.63842773 40.10449219 C-7.92274658 39.16250977 -8.20706543 38.22052734 -8.5 37.25 C-8.80043213 36.29512695 -9.10086426 35.34025391 -9.41040039 34.35644531 C-10.00956748 32.44673139 -10.60221206 30.53495756 -11.18798828 28.62109375 C-11.8726479 26.41108003 -12.58975312 24.21964086 -13.33984375 22.03125 C-15.43964385 15.75426749 -16.44891382 10.62147885 -16 4 C-8.98456368 4.9301365 -4.45032287 13.07575407 -0.4140625 18.33203125 C1.75543314 21.19842838 3.88648757 24.09204673 6 27 C4.67931239 20.50661927 2.88668369 14.30720473 0.8046875 8.015625 C0.04767581 5.17866859 -0.16195496 2.91518926 0 0 Z " fill="#E71011" transform="translate(291,357)"/>
<path d="M0 0 C2 3 2 3 1.76782227 4.90332031 C0.91355339 7.23605833 -0.11504984 9.35477692 -1.28515625 11.546875 C-1.95708008 12.81337891 -1.95708008 12.81337891 -2.64257812 14.10546875 C-3.11115234 14.97816406 -3.57972656 15.85085938 -4.0625 16.75 C-4.53494141 17.63816406 -5.00738281 18.52632813 -5.49414062 19.44140625 C-6.65888314 21.62971037 -7.82761712 23.81578248 -9 26 C-7.10393548 24.89623038 -5.20815846 23.79196687 -3.3125 22.6875 C-2.25675781 22.07261719 -1.20101562 21.45773437 -0.11328125 20.82421875 C1.86349153 19.66593407 3.82650714 18.48357875 5.76953125 17.26953125 C8 16 8 16 10 16 C12 19 12 19 12 22 C10.58227539 23.16333008 10.58227539 23.16333008 8.59765625 24.26953125 C7.5152063 24.88671021 7.5152063 24.88671021 6.41088867 25.51635742 C5.63592041 25.94408447 4.86095215 26.37181152 4.0625 26.8125 C2.49604742 27.69814008 0.93092983 28.58614576 -0.6328125 29.4765625 C-1.38852539 29.90614258 -2.14423828 30.33572266 -2.92285156 30.77832031 C-6.17695348 32.69222793 -9.22408887 34.86843199 -12.23828125 37.13671875 C-14 38 -14 38 -16.10546875 37.95703125 C-18 37 -18 37 -19.2565918 34.7578125 C-20.21229319 31.2124585 -19.54144 30.09171911 -17.7890625 26.91796875 C-17.28632812 25.98662109 -16.78359375 25.05527344 -16.265625 24.09570312 C-15.72421875 23.13599609 -15.1828125 22.17628906 -14.625 21.1875 C-14.09132813 20.20845703 -13.55765625 19.22941406 -13.0078125 18.22070312 C-11.68772765 15.80447639 -10.3515873 13.39870311 -9 11 C-9.46897705 11.30292969 -9.9379541 11.60585938 -10.42114258 11.91796875 C-12.54715884 13.28568922 -14.67967934 14.64291721 -16.8125 16 C-17.55048828 16.47695313 -18.28847656 16.95390625 -19.04882812 17.4453125 C-19.76103516 17.89648438 -20.47324219 18.34765625 -21.20703125 18.8125 C-22.18893433 19.44091797 -22.18893433 19.44091797 -23.19067383 20.08203125 C-25 21 -25 21 -28 21 C-28.66 19.35 -29.32 17.7 -30 16 C-27.00020446 14.10384301 -24.00012551 12.20813486 -21 10.3125 C-20.16082031 9.78205078 -19.32164063 9.25160156 -18.45703125 8.70507812 C-16.78314618 7.64754609 -15.10737266 6.592997 -13.4296875 5.54150391 C-11.8388923 4.53223131 -10.26004136 3.50382011 -8.6953125 2.45458984 C-7.99148437 1.98875488 -7.28765625 1.52291992 -6.5625 1.04296875 C-5.94503906 0.62426514 -5.32757813 0.20556152 -4.69140625 -0.22583008 C-3 -1 -3 -1 0 0 Z " fill="#F0EB03" transform="translate(79,348)"/>
<path d="M0 0 C3.88942413 1.72007536 7.00315635 4.00315635 10 7 C10.125 9.625 10.125 9.625 10 12 C7.25 12.25 7.25 12.25 4 12 C1.75 10.0625 1.75 10.0625 0 8 C-2.84083641 6.57958179 -4.85477278 6.68547728 -8 7 C-10.30275556 8.8670991 -11.67823871 10.35647741 -13 13 C-13.12182734 14.60075452 -13.17546598 16.20716137 -13.1875 17.8125 C-13.20167969 18.66457031 -13.21585938 19.51664062 -13.23046875 20.39453125 C-13.08282148 23.48927618 -13.08282148 23.48927618 -11 28 C-6.71 28 -2.42 28 2 28 C2 26.35 2 24.7 2 23 C-0.31 22.67 -2.62 22.34 -5 22 C-5 20.35 -5 18.7 -5 17 C-3.25008666 16.97284617 -1.50005055 16.95353449 0.25 16.9375 C1.71179688 16.92009766 1.71179688 16.92009766 3.203125 16.90234375 C5.65758678 16.98804423 7.66168914 17.29293934 10 18 C9.9669712 20.10483555 9.89755454 22.2091243 9.8125 24.3125 C9.77769531 25.48425781 9.74289063 26.65601563 9.70703125 27.86328125 C9 31 9 31 6.63671875 32.85546875 C1.03127521 35.28864646 -3.94413522 35.62467373 -10 35 C-14.45146251 32.81473658 -17.18885145 30.0605479 -20 26 C-21.69868838 20.90393486 -22.01153119 15.00710632 -20.28125 9.86328125 C-15.68573345 1.32080896 -9.17815996 -1.23089026 0 0 Z " fill="#EEEB04" transform="translate(225,445)"/>
<path d="M0 0 C5.75 0.875 5.75 0.875 8 2 C8.68944522 14.01604528 9.15130716 25.96267515 9 38 C3.125 37.125 3.125 37.125 2 36 C1.85884839 33.32941149 1.95752893 30.67567762 2 28 C-2.29 27.01 -6.58 26.02 -11 25 C-12.32 26.65 -13.64 28.3 -15 30 C-17.9375 29.625 -17.9375 29.625 -21 29 C-21.33 28.34 -21.66 27.68 -22 27 C-16.41766038 20.09255956 -10.72740205 13.29810962 -4.89941406 6.59716797 C-2.16153191 3.49949084 -2.16153191 3.49949084 0 0 Z " fill="#EFEB03" transform="translate(187,438)"/>
<path d="M0 0 C2.8125 0.1875 2.8125 0.1875 5 1 C4.41387881 8.17998455 2.54927749 14.95856242 0.60009766 21.86914062 C0.18645038 23.33794186 -0.22244864 24.80808581 -0.62744141 26.27929688 C-1.26277717 28.58486515 -1.91081205 30.88650589 -2.5625 33.1875 C-2.76004883 33.90607178 -2.95759766 34.62464355 -3.16113281 35.36499023 C-4.24695969 39.12558259 -5.37925493 42.0602077 -8 45 C-9.485 44.505 -9.485 44.505 -11 44 C-10.44687265 39.97007218 -9.8441938 35.97977076 -9 32 C-10.36125 31.566875 -10.36125 31.566875 -11.75 31.125 C-14.32202908 30.23468224 -16.61346766 29.28505587 -19 28 C-19.2475 28.5775 -19.495 29.155 -19.75 29.75 C-21.16683317 32.3002997 -22.87627537 34.01785701 -25 36 C-25.99 35.67 -26.98 35.34 -28 35 C-26.70502319 24.31644132 -13.70054058 14.12651081 -6.4753418 6.54858398 C-5.06588287 5.06915358 -3.67502057 3.57207253 -2.28515625 2.07421875 C-1.15400391 1.04748047 -1.15400391 1.04748047 0 0 Z " fill="#E71111" transform="translate(194,351)"/>
<path d="M0 0 C4.98757123 2.48292733 8.48764248 5.97528495 11 11 C11.55564585 16.438918 11.46467618 20.52479327 8 25 C6.68 24.67 5.36 24.34 4 24 C3.10606714 20.72224618 3.02459328 18.88523138 3.75 15.5 C4.36378403 11.9031948 4.36378403 11.9031948 2.0625 9.0625 C-1.127993 6.91380063 -3.15428543 6.32625977 -7.00390625 6.56640625 C-11.17236451 7.47188348 -14.0596937 10.0596937 -17 13 C-17.35765969 16.79119267 -17.24525943 19.39330562 -15.8125 22.9375 C-14.15689134 25.28587045 -14.15689134 25.28587045 -11.3125 25.3125 C-10.549375 25.209375 -9.78625 25.10625 -9 25 C-9.33 22.36 -9.66 19.72 -10 17 C-8.35 16.67 -6.7 16.34 -5 16 C-4.13395466 17.76505435 -3.28251358 19.53728074 -2.4375 21.3125 C-1.96183594 22.29863281 -1.48617187 23.28476562 -0.99609375 24.30078125 C0 27 0 27 -1 30 C-4.78635501 32.4551523 -8.68931369 33.92290081 -13.1875 34.1875 C-17.89450448 32.20009811 -20.54764738 28.39588782 -23.1484375 24.10546875 C-24.84827765 19.90265297 -24.50330273 15.4393882 -24 11 C-21.91882116 6.31734761 -18.79160663 3.45782937 -14.41796875 0.9140625 C-9.76532743 -0.84477121 -4.86696365 -0.8055664 0 0 Z " fill="#F1EC03" transform="translate(60,320)"/>
<path d="M0 0 C2.59474429 0.27603663 4.48884042 0.76103188 6.9296875 1.6015625 C7.72544189 1.87282959 8.52119629 2.14409668 9.34106445 2.42358398 C10.62630005 2.86359741 10.62630005 2.86359741 11.9375 3.3125 C13.76119037 3.92215578 15.58542401 4.53018849 17.41015625 5.13671875 C25.17382812 7.72460938 25.17382812 7.72460938 32.9375 10.3125 C31.78576645 12.78050047 30.88966435 14.36033565 28.9375 16.3125 C26.984375 16.04296875 26.984375 16.04296875 24.6875 15.5 C21.7413126 15.08524546 20.48144859 14.94950642 17.9765625 16.62109375 C15.46913443 19.3580751 13.90976661 21.14769764 14 24.9375 C14.309375 25.72125 14.61875 26.505 14.9375 27.3125 C15.6875 29.875 15.6875 29.875 15.9375 32.3125 C14.625 34.625 14.625 34.625 12.9375 36.3125 C12.2775 36.3125 11.6175 36.3125 10.9375 36.3125 C10.56463867 35.61688965 10.19177734 34.9212793 9.80761719 34.20458984 C8.10401062 31.03055191 6.39580091 27.85901367 4.6875 24.6875 C4.10097656 23.59308594 3.51445312 22.49867188 2.91015625 21.37109375 C0.11711152 16.19297712 -2.65841844 11.11528834 -6.0625 6.3125 C-3.35380435 0.50815217 -3.35380435 0.50815217 0 0 Z " fill="#EEEB04" transform="translate(403.0625,376.6875)"/>
<path d="M0 0 C2.31 0 4.62 0 7 0 C10.84380433 7.47730934 14.53373792 14.9992513 17.9375 22.6875 C18.24373291 23.37005859 18.54996582 24.05261719 18.86547852 24.75585938 C20.14188538 27.67629589 21 29.77693839 21 33 C18.69 33 16.38 33 14 33 C13.01 31.02 12.02 29.04 11 27 C6.71 27 2.42 27 -2 27 C-2.66 29.31 -3.32 31.62 -4 34 C-6.31 34 -8.62 34 -11 34 C-9.9288908 27.35912299 -8.17732892 21.1203879 -6.0625 14.75 C-5.68327393 13.59781982 -5.68327393 13.59781982 -5.29638672 12.42236328 C-3.83103619 8.09022691 -2.15919979 4.04769394 0 0 Z " fill="#EEEB04" transform="translate(251,448)"/>
<path d="M0 0 C1.8871875 0.061875 1.8871875 0.061875 3.8125 0.125 C3.4825 2.105 3.1525 4.085 2.8125 6.125 C1.884375 6.393125 0.95625 6.66125 0 6.9375 C-3.76737442 8.24214098 -3.76737442 8.24214098 -6.1875 11.125 C-6.69160559 14.46469955 -6.92049147 16.90606233 -5.1328125 19.87890625 C-3.35197342 22.06543944 -1.72894579 23.85427711 0.8125 25.125 C2.45392541 25.27140501 4.1023141 25.34596589 5.75 25.375 C6.62527344 25.40078125 7.50054687 25.4265625 8.40234375 25.453125 C10.83215629 25.31002696 10.83215629 25.31002696 12.5546875 23.90234375 C14.07389051 21.75564384 14.51445706 20.0146125 15 17.4375 C15.23783203 16.22513672 15.23783203 16.22513672 15.48046875 14.98828125 C15.64482422 14.06595703 15.64482422 14.06595703 15.8125 13.125 C13.3375 12.63 13.3375 12.63 10.8125 12.125 C10.1525 14.105 9.4925 16.085 8.8125 18.125 C7.1625 17.465 5.5125 16.805 3.8125 16.125 C4.30205945 10.90303257 6.98429954 7.40355967 9.8125 3.125 C15.7525 6.095 15.7525 6.095 21.8125 9.125 C22.61607143 20.91071429 22.61607143 20.91071429 19.1875 25.625 C15.25001613 30.04086976 11.98262093 32.87998635 5.9375 33.5625 C0.67341823 33.24102936 -4.06792068 32.11124353 -7.98828125 28.4375 C-12.49240507 23.27764455 -13.64561086 19.92121541 -13.609375 13.02734375 C-12.9314072 8.36317636 -10.51083897 5.35130718 -7.1875 2.125 C-4.09861478 0.06574319 -3.47814073 -0.1140374 0 0 Z " fill="#F1EC03" transform="translate(429.1875,344.875)"/>
<path d="M0 0 C1.75 1.5625 1.75 1.5625 3 3 C0.72226617 8.99088259 -2.39093313 14.49800765 -5.4375 20.125 C-6.02337891 21.22199219 -6.60925781 22.31898438 -7.21289062 23.44921875 C-7.78072266 24.49980469 -8.34855469 25.55039062 -8.93359375 26.6328125 C-9.44978271 27.59074707 -9.96597168 28.54868164 -10.49780273 29.53564453 C-11.83301085 31.72605421 -13.09550331 33.30482381 -15 35 C-17.0625 33.25 -17.0625 33.25 -19 31 C-18.8125 29.125 -18.8125 29.125 -18 27 C-16.97225428 23.91676285 -16.51183665 22.00820675 -17.95703125 19.0234375 C-19.50132682 16.88780011 -20.78372641 15.43770243 -23 14 C-25.51381473 13.87622984 -27.5151776 14.20595213 -29.94921875 14.828125 C-32 15 -32 15 -33.76953125 13.734375 C-35 12 -35 12 -35 9 C-34.07102905 8.7054895 -34.07102905 8.7054895 -33.12329102 8.4050293 C-30.26947867 7.49986354 -27.41598804 6.59368757 -24.5625 5.6875 C-23.58861328 5.37876953 -22.61472656 5.07003906 -21.61132812 4.75195312 C-20.64775391 4.44580078 -19.68417969 4.13964844 -18.69140625 3.82421875 C-17.25498779 3.37054932 -17.25498779 3.37054932 -15.78955078 2.90771484 C-13.98700238 2.32116881 -12.19263606 1.7085576 -10.40966797 1.06494141 C-9.23041748 0.64027588 -9.23041748 0.64027588 -8.02734375 0.20703125 C-7.342771 -0.04973389 -6.65819824 -0.30649902 -5.95288086 -0.57104492 C-3.60944855 -1.08578558 -2.24187419 -0.81230742 0 0 Z " fill="#F0EC03" transform="translate(103,382)"/>
<path d="M0 0 C-0.875 6.875 -0.875 6.875 -2 8 C-4.67058851 8.14115161 -7.32432238 8.04247107 -10 8 C-10.33 12.62 -10.66 17.24 -11 22 C-9.35 22.99 -7.7 23.98 -6 25 C-6.33 27.31 -6.66 29.62 -7 32 C-12.78998985 29.86537724 -17.84001265 26.6537414 -23.05834961 23.39770508 C-24.23029893 22.67267867 -25.40880603 21.95814954 -26.59350586 21.25415039 C-28.3127826 20.23162691 -30.01033477 19.17285089 -31.70703125 18.11328125 C-32.7225708 17.49235596 -33.73811035 16.87143066 -34.78442383 16.23168945 C-37 14 -37 14 -37.33081055 10.24291992 C-37.22164307 9.17275635 -37.11247559 8.10259277 -37 7 C-32.82138331 5.51498816 -28.75918656 4.48469036 -24.39453125 3.7109375 C-23.16412109 3.49179687 -21.93371094 3.27265625 -20.66601562 3.046875 C-18.75852539 2.71429688 -18.75852539 2.71429688 -16.8125 2.375 C-14.88760742 2.03082031 -14.88760742 2.03082031 -12.92382812 1.6796875 C-3.41059803 0 -3.41059803 0 0 0 Z " fill="#F1EC03" transform="translate(479,285)"/>
<path d="M0 0 C3.19458217 0.00496053 5.34544207 0.45924035 7.83398438 2.51513672 C9.87069313 4.60469942 11.8197814 6.74916405 13.75 8.9375 C15.1610694 10.49762488 16.57382703 12.05622449 17.98828125 13.61328125 C18.67100098 14.36947754 19.3537207 15.12567383 20.05712891 15.90478516 C23.27843613 19.37868043 26.75332312 22.56141543 30.27734375 25.7265625 C32.55332507 28.73023852 32.71759285 31.29732853 33 35 C29.60807637 34.40716379 27.7892243 33.23256811 25.25 30.9375 C24.63640625 30.38964844 24.0228125 29.84179688 23.390625 29.27734375 C22.93171875 28.85582031 22.4728125 28.43429687 22 28 C19.69 29.32 17.38 30.64 15 32 C15.165 32.680625 15.33 33.36125 15.5 34.0625 C16.07089059 37.4164822 16.06659023 40.60389805 16 44 C14.1262207 43.76953125 14.1262207 43.76953125 12 43 C10.86401367 41.13671875 10.86401367 41.13671875 9.98046875 38.6875 C9.65095215 37.78257812 9.32143555 36.87765625 8.98193359 35.9453125 C7.32996 30.99021317 5.78853534 26.01015917 4.3125 21 C3.70596616 18.95787558 3.09796858 16.91618515 2.48828125 14.875 C2.22571533 13.98554688 1.96314941 13.09609375 1.69262695 12.1796875 C1.05760677 9.9857616 1.05760677 9.9857616 0 8 C-0.13415472 5.3276379 -0.04318541 2.67749512 0 0 Z " fill="#E60D11" transform="translate(305,349)"/>
<path d="M0 0 C2.185941 1.32519311 4.15968002 2.75987072 6.1652832 4.3449707 C6.93291992 4.94760742 7.70055664 5.55024414 8.49145508 6.17114258 C9.68158203 7.11376953 9.68158203 7.11376953 10.89575195 8.07543945 C12.46369393 9.31247199 14.03268978 10.54817002 15.6027832 11.7824707 C16.3551123 12.37495605 17.10744141 12.96744141 17.88256836 13.57788086 C19.93455319 15.14908113 22.02665302 16.62567364 24.1574707 18.0871582 C25.12297852 18.80516602 26.08848633 19.52317383 27.08325195 20.26293945 C27.08325195 22.26293945 27.08325195 22.26293945 25.39575195 24.01293945 C23.08325195 25.26293945 23.08325195 25.26293945 20.58325195 24.57543945 C18.08325195 23.26293945 18.08325195 23.26293945 16.18481445 22.0324707 C14.07221757 20.98511492 14.07221757 20.98511492 12.01293945 22.16137695 C10.99586914 22.89227539 10.99586914 22.89227539 9.95825195 23.63793945 C6.23833217 26.26293945 6.23833217 26.26293945 4.08325195 26.26293945 C4.2018457 26.87782227 4.32043945 27.49270508 4.44262695 28.1262207 C4.82869491 30.54686676 5.12238667 32.81049704 5.08325195 35.26293945 C3.27075195 37.32543945 3.27075195 37.32543945 1.08325195 38.26293945 C0.42325195 38.26293945 -0.23674805 38.26293945 -0.91674805 38.26293945 C-1.77590843 33.77976747 -2.63026661 29.29571678 -3.48022461 24.81079102 C-3.76992726 23.28580142 -4.06093115 21.76105842 -4.35327148 20.23657227 C-4.77370624 18.04287525 -5.18942428 15.8483285 -5.60424805 13.65356445 C-5.73549072 12.97424866 -5.8667334 12.29493286 -6.00195312 11.59503174 C-6.60313116 8.39026091 -6.91674805 5.54365157 -6.91674805 2.26293945 C-2.87470443 -1.10543022 -2.87470443 -1.10543022 0 0 Z " fill="#F2EC03" transform="translate(351.916748046875,420.737060546875)"/>
<path d="M0 0 C0.53367187 0.18175781 1.06734375 0.36351562 1.6171875 0.55078125 C5.70378307 1.92947699 9.7933103 3.24218696 13.9375 4.4375 C19.10036499 5.9654507 24.03148472 7.93743988 29 10 C30.66586205 10.6686747 32.33231747 11.33587864 34 12 C34 14.31 34 16.62 34 19 C22.9879598 24.25345037 11.57863419 29.14045527 0 33 C0 30.36 0 27.72 0 25 C2.90600261 23.74335022 4.79604584 23 8 23 C8 18.38 8 13.76 8 9 C6.865625 8.855625 5.73125 8.71125 4.5625 8.5625 C1 8 1 8 0 7 C-0.04092937 4.66702567 -0.04241723 2.33294775 0 0 Z " fill="#F3EC02" transform="translate(19,244)"/>
<path d="M0 0 C2.37331129 1.46634794 3.99595118 2.99595118 6 5 C6 5.66 6 6.32 6 7 C3.35261084 8.4606285 2.10551666 9 -1 9 C-1.33 8.34 -1.66 7.68 -2 7 C-5.43793339 7.18129815 -5.43793339 7.18129815 -9 8 C-10.51294288 9.93597032 -10.51294288 9.93597032 -11 12 C-10.67 12.33 -10.34 12.66 -10 13 C-6.47303931 12.95837278 -2.95636775 12.87251324 0.56640625 12.69726562 C4.58385737 12.60359448 6.49540912 12.68099818 9.984375 14.88671875 C12.55019352 17.57685018 12.94423691 18.51671986 13.375 22.25 C12.92220152 26.77798484 11.41313737 29.15571886 8 32 C2.79360316 34.94701708 -1.16454291 35.65884193 -7 35 C-10.44312714 32.8755173 -11.71617547 31.85147359 -13 28 C-10 26 -10 26 -7.375 26.3125 C-5 27 -5 27 -4 28 C0.65065613 27.55206891 0.65065613 27.55206891 5 26 C5 24.35 5 22.7 5 21 C3.13794922 20.97873047 3.13794922 20.97873047 1.23828125 20.95703125 C-0.40368243 20.910118 -2.04560837 20.86187068 -3.6875 20.8125 C-4.91243164 20.80379883 -4.91243164 20.80379883 -6.16210938 20.79492188 C-10.52357577 20.63600205 -12.48007456 20.39845377 -16.04296875 17.66796875 C-18 15 -18 15 -18.625 11.5 C-17.82727497 7.03273986 -16.57797413 5.74057593 -13 3 C-8.59266327 0.67613154 -4.9860022 -0.84868123 0 0 Z " fill="#F0EB03" transform="translate(330,433)"/>
<path d="M0 0 C4.21228711 1.27873001 5.93573777 2.48807386 8.5 6.0625 C9.05147685 9.99177257 9.09311615 12.09868625 7 15.5 C6.505 16.015625 6.01 16.53125 5.5 17.0625 C4.51 16.7325 3.52 16.4025 2.5 16.0625 C2.355625 14.928125 2.21125 13.79375 2.0625 12.625 C1.88828522 9.25472799 1.88828522 9.25472799 0.5 8.0625 C-2 7.89583333 -2 7.89583333 -4.5 8.0625 C-4.83 8.3925 -5.16 8.7225 -5.5 9.0625 C-5.44549419 13.67531063 -5.44549419 13.67531063 -3.1640625 17.53125 C-1.64135262 18.7494179 -0.07148573 19.90793905 1.5 21.0625 C4.00798461 24.82447691 4.10205341 27.71266411 3.5 32.0625 C2.100448 36.91321999 0.41692484 40.2452409 -3.375 43.625 C-6.87968088 45.2371532 -8.70529403 45.78914582 -12.5 45.0625 C-15.3125 42.625 -15.3125 42.625 -17.5 40.0625 C-17.83 39.7325 -18.16 39.4025 -18.5 39.0625 C-18.62494616 37.44110563 -18.67571624 35.81365878 -18.6875 34.1875 C-18.70167969 33.30320312 -18.71585938 32.41890625 -18.73046875 31.5078125 C-18.5 29.0625 -18.5 29.0625 -16.5 26.0625 C-15.18 26.3925 -13.86 26.7225 -12.5 27.0625 C-12.17 30.3625 -11.84 33.6625 -11.5 37.0625 C-8.58365871 37.3127157 -8.58365871 37.3127157 -5.5 37.0625 C-3.16956442 33.56684664 -2.91236756 32.1759271 -3.5 28.0625 C-5.78536927 25.86745512 -5.78536927 25.86745512 -8.5 24.0625 C-11.9360197 20.27553291 -11.95232254 17.47355761 -11.78515625 12.53125 C-11.24163689 7.8257125 -9.40561928 5.04358755 -6.25 1.625 C-3.5 0.0625 -3.5 0.0625 0 0 Z " fill="#E71111" transform="translate(218.5,358.9375)"/>
<path d="M0 0 C0 1.32 0 2.64 0 4 C1.32 4 2.64 4 4 4 C4 4.99 4 5.98 4 7 C3.236875 7.268125 2.47375 7.53625 1.6875 7.8125 C-0.97931034 8.77608891 -0.97931034 8.77608891 -2.375 10.5 C-4 12 -4 12 -7.5 12.875 C-11.72551304 14.23320062 -11.94651128 15.25015102 -14 19 C-19.2972973 23 -19.2972973 23 -22 23 C-22.33 23.99 -22.66 24.98 -23 26 C-25.0625 26.6875 -25.0625 26.6875 -27 27 C-27 25.35 -27 23.7 -27 22 C-30.65079826 20.38935371 -34.0507432 19.55105909 -38 19 C-38 18.01 -38 17.02 -38 16 C-37.030625 15.71125 -36.06125 15.4225 -35.0625 15.125 C-31.89335797 14.35785318 -31.89335797 14.35785318 -31 12 C-31.68707031 12.16242188 -32.37414062 12.32484375 -33.08203125 12.4921875 C-36.33399934 13.05812572 -39.38779497 13.13252498 -42.6875 13.125 C-44.39486328 13.12886719 -44.39486328 13.12886719 -46.13671875 13.1328125 C-49 13 -49 13 -51 12 C-51 11.34 -51 10.68 -51 10 C-50.01 10 -49.02 10 -48 10 C-47.67 9.01 -47.34 8.02 -47 7 C-46.21625 7.165 -45.4325 7.33 -44.625 7.5 C-38.39769636 8.35893843 -32.13179086 8.53294771 -26 7 C-24.00102872 6.66055205 -22.00124361 6.32578384 -20 6 C-19.67 6.66 -19.34 7.32 -19 8 C-18.67 7.01 -18.34 6.02 -18 5 C-15.29120665 3.64560332 -12.99066732 3.93498549 -10 4 C-10 4.66 -10 5.32 -10 6 C-7.69 6 -5.38 6 -3 6 C-3 5.34 -3 4.68 -3 4 C-4.32 4 -5.64 4 -7 4 C-7 3.01 -7 2.02 -7 1 C-4.53721199 -0.231394 -2.7204945 -0.07159196 0 0 Z " fill="#DAE409" transform="translate(322,280)"/>
<path d="M0 0 C0.625 3.125 0.625 3.125 0 7 C-3.0062834 9.60544562 -6.44734063 11.24773982 -10 13 C-11.39605469 13.73476563 -11.39605469 13.73476563 -12.8203125 14.484375 C-19.59480337 18 -19.59480337 18 -22 18 C-22 18.66 -22 19.32 -22 20 C-20.2675 19.9071875 -20.2675 19.9071875 -18.5 19.8125 C-11.21704702 19.7774296 -4.10065645 21.5363064 3 23 C3.495 26.465 3.495 26.465 4 30 C-4.07001064 29.47030818 -11.79312161 28.16333777 -19.6875 26.4375 C-20.78255859 26.20353516 -21.87761719 25.96957031 -23.00585938 25.72851562 C-25.67185989 25.15806137 -28.33646071 24.58181776 -31 24 C-31.33 21.36 -31.66 18.72 -32 16 C-27.7669828 13.71606892 -23.53111329 11.43755495 -19.29248047 9.1640625 C-17.85027186 8.38951298 -16.40886096 7.61347623 -14.96826172 6.8359375 C-12.90018152 5.72005665 -10.82931303 4.60951556 -8.7578125 3.5 C-8.11192169 3.15001953 -7.46603088 2.80003906 -6.80056763 2.43945312 C-2.22774341 0 -2.22774341 0 0 0 Z " fill="#EEEB04" transform="translate(54,272)"/>
<path d="M0 0 C3.0625 0.5625 3.0625 0.5625 5.3125 2.625 C9.41946624 9.51883619 9.94973807 16.65403226 9.0625 24.5625 C8.07770903 27.38379305 7.24442567 28.38057433 5.0625 30.5625 C2.5625 31.6875 2.5625 31.6875 0.0625 31.5625 C-3.71861145 28.86170611 -4.76284666 25.95226053 -5.9375 21.5625 C-6.2324535 18.68172935 -6.2625609 15.8315321 -6.25 12.9375 C-6.26611328 12.18726563 -6.28222656 11.43703125 -6.29882812 10.6640625 C-6.30173028 7.39042862 -6.16414233 4.98463791 -4.6015625 2.07421875 C-2.9375 0.5625 -2.9375 0.5625 0 0 Z " fill="#FEE800" transform="translate(257.9375,370.4375)"/>
<path d="M0 0 C0 1.65 0 3.3 0 5 C-4.455 5.495 -4.455 5.495 -9 6 C-8.71125 7.43472656 -8.4225 8.86945313 -8.125 10.34765625 C-7.74965422 12.25253607 -7.37467349 14.15748784 -7 16.0625 C-6.71382813 17.47692383 -6.71382813 17.47692383 -6.421875 18.91992188 C-5.42152862 24.04669705 -4.768183 28.77687319 -5 34 C-7.97 34.495 -7.97 34.495 -11 35 C-11.8382125 31.06352226 -12.66973255 27.12566049 -13.5 23.1875 C-13.73847656 22.06794922 -13.97695313 20.94839844 -14.22265625 19.79492188 C-14.56103516 18.18520508 -14.56103516 18.18520508 -14.90625 16.54296875 C-15.11572266 15.55321045 -15.32519531 14.56345215 -15.54101562 13.54370117 C-16 11 -16 11 -16 8 C-19.3 8.33 -22.6 8.66 -26 9 C-26.33 7.35 -26.66 5.7 -27 4 C-5.23690525 -1.69714522 -5.23690525 -1.69714522 0 0 Z " fill="#EEEB04" transform="translate(294,444)"/>
<path d="M0 0 C4.87410555 0.14770017 7.0274257 2.63343093 10.18359375 5.98046875 C12.53084526 8.5902086 14.86333101 11.20948595 17.15625 13.8671875 C19.22850464 16.26432953 21.33051222 18.63334823 23.4375 21 C24.11683594 21.763125 24.79617188 22.52625 25.49609375 23.3125 C25.99238281 23.869375 26.48867188 24.42625 27 25 C29.57965997 23.79215074 31.3208165 22.71928556 33.5 20.8125 C36 19 36 19 38.1875 19 C40.50271433 20.27735963 40.92116604 21.64272403 42 24 C40.28692846 25.70707129 38.55777712 27.38891591 36.8125 29.0625 C36.32974609 29.54783203 35.84699219 30.03316406 35.34960938 30.53320312 C33.14916707 32.61550088 31.62849001 33.93543602 28.56640625 34.25 C24.5750063 32.30593914 22.04019353 29.229709 19.125 25.9375 C18.50439697 25.25373291 17.88379395 24.56996582 17.24438477 23.86547852 C15.48444816 21.92050455 13.73983784 19.96294833 12 18 C11.24332031 17.154375 10.48664063 16.30875 9.70703125 15.4375 C8.11776244 13.64124032 6.55791879 11.82337422 5 10 C4.49726563 9.44957031 3.99453125 8.89914062 3.4765625 8.33203125 C0.68015116 5.2034495 0 4.38284123 0 0 Z " fill="#E70E11" transform="translate(320,339)"/>
<path d="M0 0 C2.97 0.495 2.97 0.495 6 1 C5.42387693 6.42587552 3.52200098 10.71131376 1.1875 15.5625 C0.84396484 16.30435547 0.50042969 17.04621094 0.14648438 17.81054688 C-4.59308414 27.79654207 -4.59308414 27.79654207 -9 30 C-15.81283762 30.68128376 -15.81283762 30.68128376 -18.82421875 28.953125 C-20.98828747 27.17156722 -22.73804816 25.52390368 -24 23 C-24.04022391 20.6670134 -24.04320247 18.33293334 -24 16 C-20.98968256 15.06576355 -20.13349732 14.95550089 -17 16 C-16.67 18.31 -16.34 20.62 -16 23 C-13.62213187 23.10140694 -13.62213187 23.10140694 -11 22 C-9.22411611 19.6318954 -8.08181043 17.00516595 -6.875 14.3125 C-6.54113281 13.60416016 -6.20726562 12.89582031 -5.86328125 12.16601562 C-5.20757094 10.7735955 -4.5586121 9.3779727 -3.91699219 7.97900391 C-2.67065912 5.28923397 -1.34062198 2.64377316 0 0 Z " fill="#EEEB04" transform="translate(166,430)"/>
<path d="M0 0 C1.32 0 2.64 0 4 0 C4.09827927 5.39110567 3.79993809 10.52436444 2.9765625 15.859375 C2.87032562 16.57103821 2.76408875 17.28270142 2.65463257 18.01593018 C2.43056851 19.50536812 2.20353685 20.99436247 1.97363281 22.48291016 C1.62395223 24.75681347 1.28800756 27.03246946 0.953125 29.30859375 C0.73259103 30.76314543 0.5112647 32.21757723 0.2890625 33.671875 C0.19001617 34.34796814 0.09096985 35.02406128 -0.01107788 35.72064209 C-0.55015054 39.14300662 -1.21704109 42.00978002 -3 45 C-3.99 44.67 -4.98 44.34 -6 44 C-6.25849477 34.78705488 -5.54951478 26.03519897 -4.125 16.9375 C-3.95097656 15.74189453 -3.77695313 14.54628906 -3.59765625 13.31445312 C-2.14819598 3.76412049 -2.14819598 3.76412049 0 0 Z " fill="#E71011" transform="translate(237,364)"/>
<path d="M0 0 C0.495 2.97 0.495 2.97 1 6 C-4.80278717 8.27442578 -10.59902145 10.104485 -16.625 11.6875 C-17.44484375 11.91244141 -18.2646875 12.13738281 -19.109375 12.36914062 C-23.49009123 13.52770625 -27.42571442 14.38239296 -32 14 C-33 13 -33 13 -33.0625 10.4375 C-33.041875 9.633125 -33.02125 8.82875 -33 8 C-26.4375 6.25 -26.4375 6.25 -24.41308594 5.71191406 C-20.86202053 4.7672875 -17.31353168 3.81457332 -13.76953125 2.84375 C-12.75838257 2.56869629 -12.75838257 2.56869629 -11.72680664 2.28808594 C-9.83284957 1.77255162 -7.93983939 1.25354245 -6.046875 0.734375 C-3 0 -3 0 0 0 Z " fill="#ECEA04" transform="translate(61,305)"/>
<path d="M0 0 C3.37227052 0.6497035 5.85624311 1.91539596 8.75 3.75 C9.54921875 4.23984375 10.3484375 4.7296875 11.171875 5.234375 C13 7 13 7 13.3359375 9.58984375 C13 12 13 12 11.875 13.8125 C8.9941339 15.63704853 7.37515324 15.50945709 4 15 C1.18227904 13.53783129 -1.41423559 11.83759908 -4 10 C-3.43454163 6.04179141 -2.19097652 3.3340947 0 0 Z " fill="#FDE301" transform="translate(318,118)"/>
<path d="M0 0 C0 1.32 0 2.64 0 4 C1.32 4 2.64 4 4 4 C4 4.99 4 5.98 4 7 C3.236875 7.268125 2.47375 7.53625 1.6875 7.8125 C-0.97931034 8.77608891 -0.97931034 8.77608891 -2.375 10.5 C-4 12 -4 12 -7.5 12.875 C-11.69651355 14.22387936 -11.99275581 15.25922674 -14 19 C-16.96240248 21.1477418 -18.31446856 22 -22 22 C-22.125 19.125 -22.125 19.125 -22 16 C-20 14 -20 14 -17.6875 13.1875 C-14.79835128 12.11658159 -14.79835128 12.11658159 -12.5625 9.4375 C-9.60227484 6.62167607 -7.959468 6.44993955 -4 6 C-3.67 5.34 -3.34 4.68 -3 4 C-4.32 4 -5.64 4 -7 4 C-7 3.01 -7 2.02 -7 1 C-4.53721199 -0.231394 -2.7204945 -0.07159196 0 0 Z " fill="#17A03D" transform="translate(322,280)"/>
<path d="M0 0 C0.99 0 1.98 0 3 0 C3.20086443 3.71599191 3.1519437 4.77208445 1 8 C1.66 8 2.32 8 3 8 C3.268125 7.360625 3.53625 6.72125 3.8125 6.0625 C5 4 5 4 8 3 C7.67 5.31 7.34 7.62 7 10 C7.66 10 8.32 10 9 10 C9 10.99 9 11.98 9 13 C6.03 12.505 6.03 12.505 3 12 C3.309375 12.7425 3.61875 13.485 3.9375 14.25 C4.8094925 16.50692176 5.47667007 18.6450153 6 21 C4.68 20.34 3.36 19.68 2 19 C1.67 19.66 1.34 20.32 1 21 C-0.32 20.67 -1.64 20.34 -3 20 C-2.67 18.68 -2.34 17.36 -2 16 C-1.34 16 -0.68 16 0 16 C-0.165 15.175 -0.33 14.35 -0.5 13.5 C-1.88888889 3.77777778 -1.88888889 3.77777778 0 0 Z " fill="#1BA13C" transform="translate(322,210)"/>
<path d="M0 0 C2.4375 0.4375 2.4375 0.4375 4.4375 2.4375 C4.05400247 6.65597279 2.85759551 10.46123258 1.4375 14.4375 C-4.3125 13.5625 -4.3125 13.5625 -6.5625 12.4375 C-5.43409533 0.92777237 -5.43409533 0.92777237 0 0 Z " fill="#139F3E" transform="translate(443.5625,320.5625)"/>
<path d="M0 0 C1.4606285 2.64738916 2 3.89448334 2 7 C1.34644531 6.84660156 0.69289063 6.69320312 0.01953125 6.53515625 C-3.75492159 5.86620406 -7.48905996 5.64592703 -11.3125 5.4375 C-12.05306641 5.39431641 -12.79363281 5.35113281 -13.55664062 5.30664062 C-15.37091464 5.20129568 -17.1854355 5.10021684 -19 5 C-19 3.68 -19 2.36 -19 1 C-12.61773055 0.17648136 -6.43255401 -0.12086218 0 0 Z " fill="#109D3F" transform="translate(347,244)"/>
<path d="M0 0 C0.78375 0.165 1.5675 0.33 2.375 0.5 C8.25933283 1.31163211 14.245493 1.67066332 20 0 C20 0.99 20 1.98 20 3 C12.58043146 6.01812958 5.99014815 6.59610861 -2 6 C-2.66 5.67 -3.32 5.34 -4 5 C-4 4.34 -4 3.68 -4 3 C-3.01 3 -2.02 3 -1 3 C-0.67 2.01 -0.34 1.02 0 0 Z " fill="#1BA13C" transform="translate(275,287)"/>
<path d="M0 0 C1.670625 0.061875 1.670625 0.061875 3.375 0.125 C3.375 1.445 3.375 2.765 3.375 4.125 C1.375 4.79166667 -0.625 5.45833333 -2.625 6.125 C-4.171875 6.681875 -4.171875 6.681875 -5.75 7.25 C-8.625 8.125 -8.625 8.125 -12.625 8.125 C-12.625 6.475 -12.625 4.825 -12.625 3.125 C-11.51125 3.00125 -10.3975 2.8775 -9.25 2.75 C-4.93496274 2.00602806 -4.39050357 0.15139667 0 0 Z " fill="#2CA737" transform="translate(264.625,288.875)"/>
<path d="M0 0 C0.66 0.33 1.32 0.66 2 1 C-3.03634582 6.91113785 -8.32466745 12.50740784 -13.8125 18 C-14.57498047 18.77472656 -15.33746094 19.54945312 -16.12304688 20.34765625 C-16.85201172 21.07855469 -17.58097656 21.80945313 -18.33203125 22.5625 C-19.31780151 23.55443359 -19.31780151 23.55443359 -20.32348633 24.56640625 C-22 26 -22 26 -24 26 C-22.4152642 22.13671373 -19.94043113 19.71123077 -16.9921875 16.796875 C-16.50670441 16.3142218 -16.02122131 15.8315686 -15.52102661 15.33428955 C-13.97700134 13.80141438 -12.42615176 12.27565996 -10.875 10.75 C-9.82375991 9.70879639 -8.77297343 8.66713459 -7.72265625 7.625 C-5.15366996 5.07800536 -2.57851839 2.53734823 0 0 Z " fill="#FFF22A" transform="translate(85,60)"/>
<path d="M0 0 C4.92908146 3.87792288 8.5423711 7.76116833 12 13 C8.375 16 8.375 16 5 16 C4.16280617 13.70967689 3.3301071 11.41789043 2.5 9.125 C2.14228516 8.14853516 2.14228516 8.14853516 1.77734375 7.15234375 C0 2.2265625 0 2.2265625 0 0 Z " fill="#FCDA01" transform="translate(311,358)"/>
<path d="M0 0 C1.25127906 3.54667178 0.72285053 5.72253438 -0.4375 9.25 C-0.86869141 10.58804687 -0.86869141 10.58804687 -1.30859375 11.953125 C-1.53675781 12.62859375 -1.76492187 13.3040625 -2 14 C-6.75 13.125 -6.75 13.125 -9 12 C-7.55575365 8.76138697 -5.74227753 6.38030837 -3.375 3.75 C-2.74335938 3.04359375 -2.11171875 2.3371875 -1.4609375 1.609375 C-0.97882813 1.07828125 -0.49671875 0.5471875 0 0 Z " fill="#FDE200" transform="translate(190,362)"/>
<path d="M0 0 C0.33 0 0.66 0 1 0 C1 4.29 1 8.58 1 13 C-1.35171131 12.40138258 -3.6859378 11.73075648 -6 11 C-6.33 10.34 -6.66 9.68 -7 9 C-5.85793642 7.49712782 -4.71125043 5.99776716 -3.5625 4.5 C-2.92441406 3.6646875 -2.28632813 2.829375 -1.62890625 1.96875 C-0.82259766 0.99421875 -0.82259766 0.99421875 0 0 Z " fill="#22A43A" transform="translate(188,447)"/>
<path d="M0 0 C1.65 0 3.3 0 5 0 C5 0.66 5 1.32 5 2 C6.32 2.33 7.64 2.66 9 3 C9 2.34 9 1.68 9 1 C10.65 1 12.3 1 14 1 C13.25 2.9375 13.25 2.9375 12 5 C9.04680182 6.23843794 8.12561472 6.04187157 5 5 C4.67 6.32 4.34 7.64 4 9 C4 8.01 4 7.02 4 6 C2.68 5.34 1.36 4.68 0 4 C0 2.68 0 1.36 0 0 Z " fill="#21A33A" transform="translate(237,290)"/>
<path d="M0 0 C2.50440935 1.77732276 3.02798883 3.4948813 3.9375 6.375 C4.5975 6.375 5.2575 6.375 5.9375 6.375 C5.9375 7.365 5.9375 8.355 5.9375 9.375 C1.18268354 8.79865861 -2.03298212 6.82431479 -6.0625 4.375 C-5.75 2.4375 -5.75 2.4375 -5.0625 0.375 C-2.0625 -0.625 -2.0625 -0.625 0 0 Z " fill="#19A13C" transform="translate(170.0625,249.625)"/>
<path d="M0 0 C0.99 0 1.98 0 3 0 C3.33 3.3 3.66 6.6 4 10 C2.68 10 1.36 10 0 10 C0 10.66 0 11.32 0 12 C-0.99 12 -1.98 12 -3 12 C-2.814375 11.4225 -2.62875 10.845 -2.4375 10.25 C-1.95976454 7.79307475 -2.24270636 6.35602466 -3 4 C-2.34 4 -1.68 4 -1 4 C-0.67 2.68 -0.34 1.36 0 0 Z " fill="#1BA13C" transform="translate(375,259)"/>
<path d="M0 0 C1.21236328 0.02707031 1.21236328 0.02707031 2.44921875 0.0546875 C3.37154297 0.08949219 3.37154297 0.08949219 4.3125 0.125 C3.9825 2.765 3.6525 5.405 3.3125 8.125 C-0.79708767 6.67455729 -4.12008745 4.61389248 -7.6875 2.125 C-4.48369983 -0.01086678 -3.66810033 -0.10632175 0 0 Z " fill="#1DA23B" transform="translate(458.6875,294.875)"/>
<path d="M0 0 C1.6266848 0.28211877 3.25132896 0.57602375 4.875 0.875 C5.77992187 1.03742188 6.68484375 1.19984375 7.6171875 1.3671875 C10 2 10 2 12 4 C10.3767313 4.6708712 8.75132422 5.33657029 7.125 6 C5.76761719 6.556875 5.76761719 6.556875 4.3828125 7.125 C2 8 2 8 0 8 C0 5.36 0 2.72 0 0 Z " fill="#1CA23C" transform="translate(32,256)"/>
<path d="M0 0 C-1.45044271 4.10958767 -3.51110752 7.43258745 -6 11 C-7.70884005 9.37660195 -9.37446717 7.70680947 -11 6 C-11 5.34 -11 4.68 -11 4 C-9.5437455 3.32880451 -8.08492133 2.66318193 -6.625 2 C-5.81289062 1.62875 -5.00078125 1.2575 -4.1640625 0.875 C-2 0 -2 0 0 0 Z " fill="#1AA13C" transform="translate(97,388)"/>
<path d="M0 0 C9.8877551 -0.58163265 9.8877551 -0.58163265 14 3 C14 3.99 14 4.98 14 6 C8.57960425 6.40652968 4.92984325 5.03993514 0 3 C0 2.01 0 1.02 0 0 Z " fill="#0E9D3F" transform="translate(268,297)"/>
<path d="M0 0 C0.33 1.65 0.66 3.3 1 5 C0.34 5 -0.32 5 -1 5 C-1 5.66 -1 6.32 -1 7 C-4.3 6.34 -7.6 5.68 -11 5 C-11 4.01 -11 3.02 -11 2 C-7.17679443 0.57741188 -4.08718695 -0.24042276 0 0 Z " fill="#47B130" transform="translate(295,294)"/>
<path d="M0 0 C3.02734375 2.29492188 3.02734375 2.29492188 6.0546875 4.58984375 C7.94357079 6.03964624 7.94357079 6.03964624 10 7 C10 7.66 10 8.32 10 9 C7.09451118 11.04169485 5.59857954 12 2 12 C1.34 8.04 0.68 4.08 0 0 Z " fill="#18A03D" transform="translate(352,429)"/>
<path d="M0 0 C3.86428195 0.77285639 7.30256981 1.71019877 11 3 C10.4409112 6.24271506 9.5867822 7.93057424 7 10 C6.34 10 5.68 10 5 10 C3.35 6.7 1.7 3.4 0 0 Z " fill="#17A03D" transform="translate(406,385)"/>
<path d="M0 0 C0.66 0 1.32 0 2 0 C2.50367757 1.45706726 3.00282556 2.91570096 3.5 4.375 C3.91765625 5.59316406 3.91765625 5.59316406 4.34375 6.8359375 C5 9 5 9 5 11 C2.36 11 -0.28 11 -3 11 C-2.01 7.37 -1.02 3.74 0 0 Z " fill="#FBD402" transform="translate(243,106)"/>
<path d="M0 0 C2.86111712 2.86111712 3.7915004 4.2815397 5 8 C5 8.99 5 9.98 5 11 C2.36 11 -0.28 11 -3 11 C-2.01 7.37 -1.02 3.74 0 0 Z " fill="#129E3E" transform="translate(254,457)"/>
<path d="M0 0 C4.49652778 -0.36458333 4.49652778 -0.36458333 6.8125 1.3125 C8 3 8 3 8 6 C4.625 6.625 4.625 6.625 1 7 C0.34 6.34 -0.32 5.68 -1 5 C-0.625 2.375 -0.625 2.375 0 0 Z " fill="#22A43A" transform="translate(315,247)"/>
<path d="M0 0 C1.65 0.33 3.3 0.66 5 1 C5 2.32 5 3.64 5 5 C2.69 5.33 0.38 5.66 -2 6 C-2 6.66 -2 7.32 -2 8 C-1.34 8.33 -0.68 8.66 0 9 C-1.65 9 -3.3 9 -5 9 C-4.67 7.35 -4.34 5.7 -4 4 C-3.01 4 -2.02 4 -1 4 C-0.67 2.68 -0.34 1.36 0 0 Z " fill="#5DB82A" transform="translate(158,237)"/>
<path d="M0 0 C0.66 0.33 1.32 0.66 2 1 C2 2.32 2 3.64 2 5 C2.66 5.33 3.32 5.66 4 6 C3.34 6 2.68 6 2 6 C1.67 6.99 1.34 7.98 1 9 C-1.0625 9.6875 -1.0625 9.6875 -3 10 C-3 8.35 -3 6.7 -3 5 C-3.66 4.67 -4.32 4.34 -5 4 C-3.36587557 2.29159719 -2.13093906 1.06546953 0 0 Z " fill="#AED415" transform="translate(298,297)"/>
<path d="M0 0 C1.32 0 2.64 0 4 0 C4 2.31 4 4.62 4 7 C3.01 7.33 2.02 7.66 1 8 C1 8.99 1 9.98 1 11 C0.01 11 -0.98 11 -2 11 C-1 3.57142857 -1 3.57142857 0 0 Z " fill="#30A836" transform="translate(293,260)"/>
<path d="M0 0 C5 0 10 0 15 0 C15 0.99 15 1.98 15 3 C10.05 3 5.1 3 0 3 C0 2.01 0 1.02 0 0 Z " fill="#65BB28" transform="translate(233,302)"/>
<path d="M0 0 C1.65 0.33 3.3 0.66 5 1 C5.33 2.98 5.66 4.96 6 7 C2 7 2 7 0.1875 5.75 C-1 4 -1 4 -0.6875 1.8125 C-0.460625 1.214375 -0.23375 0.61625 0 0 Z " fill="#17A03D" transform="translate(106,232)"/>
<path d="M0 0 C0 1.32 0 2.64 0 4 C1.32 4.33 2.64 4.66 4 5 C1.69 5.33 -0.62 5.66 -3 6 C-3 5.34 -3 4.68 -3 4 C-4.32 4 -5.64 4 -7 4 C-7 3.01 -7 2.02 -7 1 C-4.53721199 -0.231394 -2.7204945 -0.07159196 0 0 Z " fill="#D1E10B" transform="translate(322,280)"/>
<path d="M0 0 C0 3.07868526 -0.43386841 4.35430616 -1.75 7.0625 C-2.07484375 7.75472656 -2.3996875 8.44695312 -2.734375 9.16015625 C-4.26367304 11.38330247 -5.48586496 12.07399225 -8 13 C-8.99 13 -9.98 13 -11 13 C-7.37 8.71 -3.74 4.42 0 0 Z " fill="#33A936" transform="translate(114,406)"/>
<path d="M0 0 C3.875 0.875 3.875 0.875 5 2 C5.04092937 4.33297433 5.04241723 6.66705225 5 9 C2.5 7.3125 2.5 7.3125 0 5 C-0.3125 2.25 -0.3125 2.25 0 0 Z " fill="#109D3F" transform="translate(117,247)"/>
<path d="M0 0 C2.97 0.33 5.94 0.66 9 1 C8.67 1.99 8.34 2.98 8 4 C5.69 4 3.38 4 1 4 C0.67 2.68 0.34 1.36 0 0 Z " fill="#1CA23C" transform="translate(222,282)"/>
<path d="M0 0 C0.99 0.33 1.98 0.66 3 1 C1.66666667 3.66666667 0.33333333 6.33333333 -1 9 C-1.66 9 -2.32 9 -3 9 C-3.26218749 5.85375007 -3.24754367 4.38162983 -1.5 1.6875 C-1.005 1.130625 -0.51 0.57375 0 0 Z " fill="#2AA738" transform="translate(354,273)"/>
<path d="M0 0 C0.33 0.66 0.66 1.32 1 2 C2.99054876 2.69437747 4.99255385 3.35610218 7 4 C9.01470098 4.97004121 11.01922047 5.96244882 13 7 C13.33 6.34 13.66 5.68 14 5 C14 5.99 14 6.98 14 8 C12.68 8 11.36 8 10 8 C9.67 8.99 9.34 9.98 9 11 C8.67 10.2575 8.34 9.515 8 8.75 C5.30745156 5.04774589 2.13732658 3.75910085 -2 2 C-1.34 1.34 -0.68 0.68 0 0 Z " fill="#A9D316" transform="translate(163,252)"/>
<path d="M0 0 C6.27 0.33 12.54 0.66 19 1 C19 1.33 19 1.66 19 2 C17.72125 2.144375 16.4425 2.28875 15.125 2.4375 C12.74307106 2.70642746 11.15547309 2.92226346 9 4 C6.8359375 3.44140625 6.8359375 3.44140625 4.375 2.5625 C3.55773437 2.27503906 2.74046875 1.98757812 1.8984375 1.69140625 C1.27195312 1.46324219 0.64546875 1.23507813 0 1 C0 0.67 0 0.34 0 0 Z " fill="#4FB42E" transform="translate(456,251)"/>
<path d="M0 0 C1.98 0 3.96 0 6 0 C6 0.99 6 1.98 6 3 C5.34 3.66 4.68 4.32 4 5 C2.68 5 1.36 5 0 5 C0 3.35 0 1.7 0 0 Z " fill="#0B9C40" transform="translate(252,292)"/>
<path d="M0 0 C2.31 0.33 4.62 0.66 7 1 C7 1.99 7 2.98 7 4 C4.36 4 1.72 4 -1 4 C-0.67 2.68 -0.34 1.36 0 0 Z " fill="#1CA13C" transform="translate(300,238)"/>
<path d="M0 0 C2.31 0 4.62 0 7 0 C6.67 1.65 6.34 3.3 6 5 C4.02 4.34 2.04 3.68 0 3 C0 2.01 0 1.02 0 0 Z " fill="#44AF31" transform="translate(381,231)"/>
<path d="M0 0 C0.99 0 1.98 0 3 0 C3 1.98 3 3.96 3 6 C1.68 6.33 0.36 6.66 -1 7 C-1.04254356 5.00045254 -1.04080783 2.99958364 -1 1 C-0.67 0.67 -0.34 0.34 0 0 Z " fill="#1CA13C" transform="translate(327,204)"/>
<path d="M0 0 C2.97 0.495 2.97 0.495 6 1 C6 2.32 6 3.64 6 5 C4.68 5 3.36 5 2 5 C1.34 3.35 0.68 1.7 0 0 Z " fill="#38AB34" transform="translate(379,224)"/>
<path d="M0 0 C1 2 1 2 0.3125 4.5 C-1.20205625 7.38486906 -2.02429397 7.86223005 -5 9 C-6.33722892 9.65881791 -7.6711444 10.32445207 -9 11 C-8.60167969 10.54109375 -8.20335937 10.0821875 -7.79296875 9.609375 C-5.08857938 6.47728415 -2.42008229 3.36122541 0 0 Z " fill="#FAC702" transform="translate(161,345)"/>
<path d="M0 0 C0 0.99 0 1.98 0 3 C-2.31 3 -4.62 3 -7 3 C-7 2.01 -7 1.02 -7 0 C-3.86650268 -1.04449911 -3.01031744 -0.93423645 0 0 Z " fill="#1BA13C" transform="translate(349,223)"/>
<path d="M0 0 C0.99 0 1.98 0 3 0 C3 0.99 3 1.98 3 3 C-1.33273814 3.92844389 -4.66726186 3.92844389 -9 3 C-9 2.67 -9 2.34 -9 2 C-6.94921875 1.77213542 -4.8984375 1.54427083 -2.84765625 1.31640625 C-0.98859771 1.18113386 -0.98859771 1.18113386 0 0 Z " fill="#52B42D" transform="translate(292,287)"/>
<path d="M0 0 C1.98 0 3.96 0 6 0 C5.67 0.99 5.34 1.98 5 3 C3.02 3.33 1.04 3.66 -1 4 C-0.67 2.68 -0.34 1.36 0 0 Z " fill="#2DA737" transform="translate(306,284)"/>
<path d="M0 0 C1.32 0 2.64 0 4 0 C4 0.66 4 1.32 4 2 C4.66 2 5.32 2 6 2 C6 2.99 6 3.98 6 5 C4.35 4.67 2.7 4.34 1 4 C0.67 2.68 0.34 1.36 0 0 Z " fill="#27A539" transform="translate(322,233)"/>
<path d="M0 0 C1.32 0.33 2.64 0.66 4 1 C4 1.66 4 2.32 4 3 C5.98 3 7.96 3 10 3 C10 4.65 10 6.3 10 8 C9.67 6.68 9.34 5.36 9 4 C6.69 4 4.38 4 2 4 C1.34 2.68 0.68 1.36 0 0 Z " fill="#77C123" transform="translate(140,227)"/>
<path d="M0 0 C1.65 0 3.3 0 5 0 C4.25 1.9375 4.25 1.9375 3 4 C0.875 4.75 0.875 4.75 -1 5 C-0.67 3.35 -0.34 1.7 0 0 Z " fill="#149F3E" transform="translate(246,291)"/>
<path d="M0 0 C0.33 0.66 0.66 1.32 1 2 C1.99 2.33 2.98 2.66 4 3 C3.01 3 2.02 3 1 3 C0.67 4.98 0.34 6.96 0 9 C-0.66 8.67 -1.32 8.34 -2 8 C-1.67 7.01 -1.34 6.02 -1 5 C-1.99 4.67 -2.98 4.34 -4 4 C-2.68 3.67 -1.36 3.34 0 3 C0 2.01 0 1.02 0 0 Z " fill="#D7E30A" transform="translate(292,257)"/>
<path d="M0 0 C0.33 0 0.66 0 1 0 C1 2.64 1 5.28 1 8 C-0.32 7.67 -1.64 7.34 -3 7 C-2.67 5.68 -2.34 4.36 -2 3 C-1.34 3 -0.68 3 0 3 C0 2.01 0 1.02 0 0 Z " fill="#6EBE26" transform="translate(322,223)"/>
<path d="M0 0 C2.475 0.495 2.475 0.495 5 1 C5.33 2.32 5.66 3.64 6 5 C4.125 4.75 4.125 4.75 2 4 C0.75 1.9375 0.75 1.9375 0 0 Z " fill="#2CA738" transform="translate(94,224)"/>
<path d="M0 0 C1.65 0 3.3 0 5 0 C4.67 1.65 4.34 3.3 4 5 C3.01 5.33 2.02 5.66 1 6 C0.67 4.02 0.34 2.04 0 0 Z " fill="#38AB34" transform="translate(286,262)"/>
<path d="M0 0 C0.99 0 1.98 0 3 0 C2.67 1.32 2.34 2.64 2 4 C1.01 4 0.02 4 -1 4 C-1 4.66 -1 5.32 -1 6 C-1.66 6 -2.32 6 -3 6 C-3 5.01 -3 4.02 -3 3 C-2.34 3 -1.68 3 -1 3 C-0.67 2.01 -0.34 1.02 0 0 Z " fill="#31A936" transform="translate(364,259)"/>
<path d="M0 0 C2.475 0.495 2.475 0.495 5 1 C5 2.32 5 3.64 5 5 C3.68 4.67 2.36 4.34 1 4 C0.67 2.68 0.34 1.36 0 0 Z " fill="#99CD1A" transform="translate(158,237)"/>
<path d="M0 0 C0.99 0 1.98 0 3 0 C2.67 1.98 2.34 3.96 2 6 C1.01 6 0.02 6 -1 6 C-0.67 4.02 -0.34 2.04 0 0 Z " fill="#22A43A" transform="translate(313,193)"/>
<path d="M0 0 C-0.804375 0.3403125 -0.804375 0.3403125 -1.625 0.6875 C-4.78500863 2.43382056 -7.2676983 4.6402849 -10 7 C-8.07091409 1.3611335 -6.01450566 -0.32510841 0 0 Z " fill="#44B031" transform="translate(432,351)"/>
<path d="M0 0 C1.32 0 2.64 0 4 0 C4.33 0.99 4.66 1.98 5 3 C4.01 3 3.02 3 2 3 C1.67 3.66 1.34 4.32 1 5 C1 4.34 1 3.68 1 3 C0.01 2.67 -0.98 2.34 -2 2 C-1.34 1.34 -0.68 0.68 0 0 Z " fill="#029843" transform="translate(291,295)"/>
<path d="M0 0 C1.65 0 3.3 0 5 0 C5 0.99 5 1.98 5 3 C3.02 3 1.04 3 -1 3 C-0.67 2.01 -0.34 1.02 0 0 Z " fill="#2BA737" transform="translate(317,280)"/>
<path d="M0 0 C0.66 0.33 1.32 0.66 2 1 C1.34 1.66 0.68 2.32 0 3 C0.33 3.66 0.66 4.32 1 5 C-0.98 5 -2.96 5 -5 5 C-5 4.34 -5 3.68 -5 3 C-2.625 1.3125 -2.625 1.3125 0 0 Z " fill="#C9DE0D" transform="translate(127,67)"/>
</svg>
